<svg xmlns="http://www.w3.org/2000/svg" width="1200" height="298" fill="none"><path d="M.4 124c25.7-2.5 51.4-5 77-8.5s51-8.2 76-15c6.2-1.9 12.4-3.5 18.5-5.6l4.6-1.5c1.5-.5 3.1-1 4.6-1.6l9.1-3.4 2.3-.9 2.2-1 4.4-1.9c3-1.3 6-2.5 8.8-4l8.7-4.2c2.9-1.5 5.7-3 8.6-4.5 11.4-6.1 22.7-12.3 34.4-17.9 11.7-5.6 23.7-10.6 36.2-13.9 6.3-1.6 12.6-3 19-3.8 3.2-.5 6.4-.7 9.7-1 1.6-.2 3.2-.2 4.8-.3 1.6-.1 3.2-.2 4.8-.2 12.9-.3 25.9.5 38.7 2.3 12.8 1.7 25.5 4.1 38.2 6.9 12.6 2.8 25.2 5.9 37.7 9.2 25 6.5 49.9 13.6 74.9 20 25 6.4 50.3 12 75.9 15.5 25.6 3.5 51.5 4.9 77.2 2.9 25.7-2 51.2-7.5 75-17.5 23.8-9.9 46.3-23 70.7-31.8 24.4-8.7 50.6-12 76.4-10.3 12.9.8 25.8 2.5 38.5 4.9 12.7 2.5 25.2 5.6 37.7 9.2 24.9 7.1 49.1 16 73.6 24.4 12.2 4.2 24.5 8.3 36.8 12 12.4 3.7 24.9 7 37.5 9.6l4.7 1c1.6.3 3.2.7 4.8.9l9.6 1.6 9.6 1.2c1.6.2 3.2.3 4.8.5l4.8.4c12.9.9 25.8.8 38.7-.5-12.9 1.3-25.8 1.5-38.7.6l-4.8-.4c-1.6-.1-3.2-.2-4.8-.5l-9.6-1.2-9.6-1.6c-1.6-.2-3.2-.6-4.8-.9l-4.8-.9c-12.7-2.6-25.2-5.8-37.6-9.5-12.4-3.7-24.7-7.7-36.9-11.9-24.5-8.4-48.7-17.3-73.6-24.3-12.4-3.5-25-6.6-37.6-9.1-12.7-2.4-25.5-4.1-38.4-4.9-25.7-1.7-51.8 1.6-76.1 10.3-24.3 8.8-46.7 21.9-70.6 31.9-23.9 10.1-49.5 15.6-75.3 17.6-25.8 2-51.8.7-77.4-2.9-25.6-3.5-50.9-9.2-76-15.6-25-6.4-49.9-13.5-74.9-20.1-12.5-3.3-25-6.4-37.6-9.2-12.6-2.8-25.3-5.3-38.1-7-12.8-1.7-25.7-2.6-38.6-2.3-1.6 0-3.2.1-4.8.2-1.6.1-3.2.1-4.8.3-3.2.3-6.4.5-9.6 1-6.4.8-12.7 2.1-19 3.7-12.5 3.3-24.5 8.3-36.1 13.8-11.6 5.6-23 11.8-34.4 17.9-2.9 1.5-5.7 3-8.6 4.5l-8.7 4.2c-2.9 1.5-5.9 2.7-8.9 4l-4.5 1.9-2.2 1-2.3.9-9.1 3.4c-1.5.6-3 1.1-4.6 1.6l-4.6 1.5c-3.1 1-6.1 2.1-9.2 2.9l-9.3 2.7c-25 6.7-50.5 11.4-76.1 14.8-25.4 3.6-51.1 6-76.9 8.4Z" fill="#287EF8"/><path d="M.4 134.5c25.7-2 51.4-4.2 76.9-7.7 25.5-3.4 50.9-8.2 75.8-15l9.3-2.7 4.6-1.4 4.6-1.5 9.1-3.1 9-3.5c1.5-.6 3-1.1 4.5-1.8l4.4-1.9L203 94c1.5-.7 3-1.2 4.4-2 5.8-2.8 11.6-5.6 17.3-8.7 11.4-6.1 22.6-12.4 34.2-18.1 11.5-5.8 23.4-11 35.7-14.9 12.3-3.9 25.1-6.2 38-7.3 6.4-.5 12.9-.8 19.3-.8 6.5 0 12.9.3 19.3.7 12.9.9 25.7 2.5 38.4 4.5s25.4 4.2 38.1 6.5c25.4 4.7 50.6 10 75.8 15.3 12.6 2.7 25.2 5.5 37.7 8.5 6.3 1.5 12.5 3.1 18.8 4.5l9.4 2.1 4.7 1.1 4.7 1c25.2 5.1 50.9 8.2 76.7 7.7 12.9-.2 25.7-1.5 38.3-3.9 6.3-1.2 12.6-2.7 18.8-4.4 6.2-1.8 12.3-3.9 18.3-6.1 24.1-9.1 47-21.2 71.6-29.3 12.3-4.1 24.9-6.9 37.7-8.7 12.8-1.8 25.7-2.4 38.6-2 12.9.4 25.8 2 38.4 4.5 12.7 2.5 25.1 5.8 37.5 9.5 24.7 7.4 49 16.2 73.4 24.3 12.2 4.1 24.5 7.9 37 11.4 12.4 3.5 24.9 6.5 37.6 8.9 25.3 4.9 51.2 6.9 76.9 4.3-25.7 2.7-51.7.7-77-4.1-12.7-2.4-25.2-5.4-37.7-8.8-12.4-3.4-24.8-7.2-37-11.2-24.5-8.1-48.7-16.9-73.5-24.2-12.3-3.7-24.8-7-37.5-9.5-12.6-2.5-25.4-4.1-38.3-4.5-12.9-.4-25.8.3-38.5 2-12.8 1.7-25.4 4.6-37.6 8.7-24.5 8.1-47.4 20.2-71.5 29.3-6 2.3-12.2 4.4-18.4 6.2-6.2 1.8-12.5 3.3-18.8 4.5-12.7 2.4-25.6 3.7-38.5 4-25.8.6-51.6-2.6-76.9-7.6l-4.7-1-4.7-1.1-9.4-2.2c-6.3-1.4-12.5-3-18.8-4.5-12.5-3-25.1-5.9-37.7-8.6-25.2-5.3-50.4-10.7-75.8-15.4-12.7-2.4-25.4-4.6-38.1-6.6-12.7-2-25.5-3.6-38.4-4.5-6.4-.4-12.9-.7-19.3-.7-6.4-.1-12.9.3-19.3.8-12.8 1.1-25.6 3.4-37.8 7.2-12.3 3.8-24.1 9-35.6 14.8-11.5 5.8-22.8 12-34.2 18.1-22.7 12.4-47 21.5-71.8 28.5-24.9 6.7-50.3 11.5-75.9 14.8-25.1 3.5-50.8 5.6-76.5 7.5Z" fill="#287EF8"/><path d="M.4 145c25.7-1.6 51.4-3.5 76.9-7 12.8-1.6 25.5-3.8 38.1-6.2l9.5-1.9c3.2-.6 6.3-1.4 9.4-2.2 6.3-1.4 12.5-3.2 18.7-4.8 3.1-.8 6.2-1.8 9.2-2.8 3.1-.9 6.2-1.8 9.2-2.9l9.1-3.1c3-1.1 6-2.3 9-3.5l4.5-1.7c1.5-.6 2.9-1.3 4.4-1.9l8.8-3.9 8.7-4.3c1.4-.7 2.9-1.4 4.3-2.2l4.3-2.3c11.4-6.1 22.6-12.4 34-18.3 11.4-5.9 23.1-11.5 35.3-15.8l4.6-1.6c1.5-.5 3.1-.9 4.6-1.4 3.1-1 6.2-1.7 9.3-2.5 6.3-1.5 12.6-2.7 19-3.6 12.8-1.9 25.7-2.5 38.6-2.5 12.9.1 25.8.8 38.6 1.9 12.8 1.1 25.7 2.3 38.5 3.7 25.6 2.8 51.2 6.3 76.6 10.6 12.7 2.2 25.3 5 37.7 8.4 12.4 3.5 24.7 7.3 37.1 10.8 24.8 6.7 50.2 11.7 75.9 12.7 12.8.5 25.7-.2 38.4-2.1 6.4-1 12.7-2.2 18.9-3.8 6.2-1.6 12.4-3.5 18.5-5.5 24.4-8.3 47.7-19.4 72.4-27 12.3-3.8 25-6.6 37.7-8.6 12.7-2 25.6-3.1 38.5-2.9 12.9.1 25.8 1.7 38.4 4.3 12.6 2.6 25.1 6.1 37.4 9.9 6.2 1.9 12.3 3.8 18.4 5.8l18.4 6.1c12.2 4.1 24.4 8.2 36.7 12.1 24.5 7.8 49.4 14.6 74.8 19 25.3 4.5 51.3 6.2 76.9 3.7-25.7 2.5-51.6.9-77-3.5s-50.3-11.1-74.9-18.8c-12.3-3.9-24.5-8-36.7-12.1l-18.4-6c-6.1-2-12.3-3.9-18.4-5.8-12.3-3.8-24.7-7.3-37.3-9.8-12.6-2.6-25.4-4.1-38.3-4.2-12.9-.2-25.7 1-38.4 3s-25.3 4.8-37.6 8.6c-24.6 7.6-47.9 18.7-72.4 27-6.1 2.1-12.3 4-18.5 5.6-6.3 1.6-12.6 2.8-19 3.8-12.8 1.9-25.7 2.6-38.6 2.1-25.8-1-51.3-5.9-76.2-12.7-12.4-3.4-24.7-7.3-37.1-10.8-12.4-3.5-25-6.2-37.6-8.4-25.4-4.4-50.9-7.8-76.5-10.7-12.8-1.4-25.6-2.7-38.4-3.8-12.8-1.1-25.7-1.9-38.5-2-12.9 0-25.7.6-38.5 2.4-6.4.8-12.7 2.1-18.9 3.6-3.1.8-6.2 1.5-9.3 2.5-1.5.5-3.1.9-4.6 1.4l-4.6 1.5c-12.1 4.3-23.8 9.8-35.2 15.7-11.4 5.9-22.7 12.2-34 18.3l-4.3 2.3c-1.4.7-2.9 1.4-4.3 2.1l-8.7 4.3-8.9 3.9c-1.5.6-2.9 1.3-4.4 1.9l-4.5 1.7c-3 1.2-6 2.4-9 3.5l-9.1 3.1c-3 1.1-6.1 2-9.2 2.9-3.1.9-6.2 1.9-9.3 2.7-6.2 1.6-12.4 3.4-18.7 4.7-3.1.7-6.3 1.5-9.4 2.1l-9.5 1.9c-12.7 2.4-25.4 4.5-38.2 6.1-25.5 3.9-51.2 5.8-76.9 7.2Z" fill="#287EF8"/><path d="M.3 155.5c25.7-1.1 51.5-2.8 77-6.2 12.8-1.6 25.5-3.7 38.1-6.2l9.5-2 2.4-.5 2.3-.6 4.7-1.1c6.3-1.4 12.5-3.2 18.7-4.9 12.4-3.6 24.6-7.5 36.6-12.4 6-2.2 11.9-5 17.8-7.6 2.9-1.4 5.8-2.8 8.7-4.3l4.3-2.2c1.4-.7 2.8-1.5 4.3-2.3 22.7-12.1 44.8-25.6 68.9-35.1 12-4.7 24.5-8.3 37.1-10.8 6.3-1.3 12.7-2.2 19.1-3 6.4-.7 12.8-1.3 19.3-1.7 12.9-.8 25.8-.9 38.7-.7 12.9.2 25.8.4 38.7.8 25.8.8 51.5 2.3 77.1 5.8 12.8 1.8 25.4 4.5 37.8 8.5 12.3 4 24.3 8.8 36.4 12.9 24.3 8.4 49.3 15.3 74.9 18 12.8 1.2 25.7 1.2 38.5-.2 6.4-.7 12.7-1.7 19-3.1 6.3-1.4 12.5-3 18.7-4.9 24.7-7.4 48.4-17.7 73.2-24.9 12.4-3.6 25-6.5 37.7-8.8 12.7-2.3 25.5-3.9 38.5-3.9 6.5 0 12.9.3 19.3 1s12.8 1.8 19.1 3.1c12.6 2.7 25 6.4 37.3 10.3 12.3 3.9 24.5 7.9 36.8 11.9 12.2 4.1 24.5 8.1 36.8 11.8 12.3 3.8 24.8 7.1 37.3 10.2 12.5 3 25.2 5.6 37.9 7.6 25.4 4.1 51.4 5.5 77 3.2-25.7 2.4-51.6 1-77.1-3-12.7-2-25.4-4.5-37.9-7.5s-25-6.3-37.3-10c-12.3-3.7-24.6-7.8-36.8-11.8-12.3-4-24.5-8-36.8-11.9-12.3-3.9-24.7-7.5-37.2-10.2-6.3-1.3-12.6-2.4-19-3.1-6.4-.7-12.8-1-19.3-1-12.9.1-25.7 1.7-38.3 4-12.7 2.3-25.2 5.2-37.6 8.8-24.7 7.3-48.4 17.5-73.2 25-6.2 1.9-12.4 3.5-18.7 4.9-6.3 1.4-12.7 2.4-19.1 3.1-12.8 1.4-25.8 1.5-38.7.3-25.7-2.6-50.8-9.5-75.2-17.9-12.2-4.2-24.2-9-36.4-13s-24.9-6.6-37.6-8.5c-25.5-3.5-51.3-5.1-77-5.9-12.9-.4-25.8-.6-38.6-.8-12.9-.2-25.8-.1-38.6.7-25.7 1.4-51.4 5.9-75.3 15.4-24 9.4-46.1 22.9-68.9 35-1.4.7-2.8 1.5-4.3 2.3l-4.3 2.1c-2.9 1.4-5.8 2.9-8.7 4.3-5.9 2.6-11.7 5.3-17.8 7.6-12 4.9-24.3 8.8-36.6 12.4-6.2 1.7-12.4 3.4-18.7 4.8l-4.7 1.1-2.4.6-2.4.5-9.5 1.9c-12.7 2.4-25.4 4.5-38.2 6.1-25.8 3.4-51.5 5-77.3 6Z" fill="#287EF8"/><path d="M.3 166c25.8-.6 51.6-2.1 77.3-5.5 12.8-1.6 25.6-3.7 38.2-6.2 6.3-1.3 12.6-2.6 18.9-4.2l4.7-1.1 2.4-.6 2.3-.6 9.3-2.6c12.4-3.7 24.7-7.7 36.6-12.6 6-2.3 11.9-5 17.8-7.7 1.5-.6 2.9-1.4 4.4-2.1l4.3-2.2c2.9-1.4 5.8-2.9 8.6-4.4 11.4-6.1 22.6-12.5 33.9-18.7 11.3-6.2 22.8-12.2 34.7-17.2 11.9-5.1 24.2-9.2 36.8-12.3 6.3-1.6 12.6-2.9 19-4s12.8-2.1 19.2-2.9c12.8-1.6 25.7-2.6 38.6-3.4 12.9-.8 25.8-1.7 38.7-2.3 12.9-.7 25.8-1.1 38.8-1 6.5.1 12.9.2 19.4.5 6.5.3 12.9.7 19.3 1.5 12.8 1.5 25.6 4.2 37.8 8.7 3 1.1 6 2.4 9 3.6l8.9 3.9c5.9 2.6 11.8 5.2 17.8 7.8 11.9 5.1 23.9 9.9 36.1 13.9 6.1 2 12.3 3.9 18.6 5.5 6.2 1.6 12.5 3 18.9 4 6.4 1 12.8 1.6 19.2 1.9 6.4.3 12.9.2 19.3-.3 12.9-.9 25.6-3.3 38-6.6 25-6.6 49.1-16.1 73.9-23.2 12.4-3.6 25-6.6 37.6-9.3 12.6-2.7 25.5-4.7 38.4-5 13-.4 25.9 1.2 38.5 4.1 12.6 2.8 25 6.7 37.3 10.6l36.9 11.9c12.3 4 24.6 8 37 11.6 12.4 3.6 24.9 6.8 37.5 9.6 12.6 2.8 25.3 5.2 38.1 7 25.6 3.7 51.5 4.9 77.3 2.7-25.7 2.3-51.7 1.2-77.3-2.4-12.8-1.8-25.5-4.2-38.1-6.9-12.6-2.8-25.2-5.9-37.6-9.5-12.4-3.6-24.7-7.5-37-11.5l-36.9-11.9c-12.3-3.9-24.6-7.8-37.2-10.5-12.6-2.8-25.5-4.4-38.4-4-12.9.4-25.7 2.4-38.3 5.1-12.6 2.7-25.2 5.7-37.6 9.3-24.8 7.1-48.9 16.7-73.9 23.3-12.5 3.3-25.3 5.8-38.2 6.7-6.5.4-12.9.5-19.4.3-6.5-.3-12.9-.9-19.3-1.9-6.4-1-12.7-2.4-19-4-6.3-1.6-12.5-3.5-18.6-5.5-12.3-4-24.3-8.8-36.2-13.9l-17.7-7.8-8.9-3.9c-3-1.2-6-2.5-9-3.6-12.1-4.5-24.8-7.2-37.5-8.7-6.4-.8-12.8-1.2-19.3-1.5-6.4-.3-12.9-.5-19.3-.5-12.9-.1-25.8.3-38.7 1-12.9.7-25.8 1.5-38.7 2.3-12.9.8-25.8 1.8-38.6 3.4-6.4.8-12.8 1.8-19.1 2.9-6.3 1.2-12.7 2.5-18.9 4-12.5 3.1-24.8 7.2-36.7 12.2-11.9 5-23.4 11-34.7 17.2-11.3 6.2-22.5 12.6-34 18.7-2.8 1.6-5.7 3-8.6 4.4l-4.3 2.2c-1.4.7-2.9 1.5-4.4 2.1-5.9 2.6-11.8 5.4-17.8 7.7-12 4.9-24.3 8.9-36.7 12.5l-9.3 2.6-2.3.6-2.4.6-4.7 1.1c-6.3 1.6-12.6 2.8-18.9 4.2-12.7 2.4-25.4 4.6-38.3 6.1C52 164.1 26.1 165.5.3 166Z" fill="#287EF8"/><path d="M.3 176.5c25.9-.1 51.9-1.4 77.6-4.7 12.9-1.5 25.7-3.7 38.4-6.2 6.3-1.4 12.7-2.6 19-4.3l4.7-1.2 2.4-.6 2.3-.7 9.4-2.6 2.3-.7 2.3-.7 4.6-1.5 4.6-1.5 2.3-.7 2.3-.8 9.1-3.3 2.3-.8 2.3-.9 4.5-1.8c6.1-2.3 11.9-5.1 17.8-7.8 1.5-.6 2.9-1.4 4.4-2.1l4.3-2.2c2.9-1.5 5.8-2.9 8.6-4.4 22.8-12.3 44.9-26 68.5-36.9 11.8-5.4 24-10 36.4-13.7 12.4-3.7 25.1-6.7 37.9-9.1 12.7-2.4 25.6-4.3 38.4-6.2 12.8-1.8 25.7-3.8 38.5-5.6 12.9-1.8 25.8-3.2 38.7-3.9 6.5-.4 13-.5 19.5-.6 6.5 0 13 .2 19.5.8C536.1 53 549 55.9 561 61c1.5.6 3 1.3 4.4 2 1.5.7 3 1.3 4.4 2.1l8.6 4.5 8.6 4.5 8.6 4.5c11.5 6 23.1 11.7 35.1 16.7 6 2.5 12 4.8 18.1 6.9 6.1 2.1 12.3 3.9 18.7 5.3 12.6 2.8 25.6 4 38.5 3.6 12.9-.3 25.8-2.3 38.4-5.2 12.6-2.8 25.1-6.5 37.5-10.3l18.6-5.7 9.3-2.9 4.7-1.4c1.6-.5 3.1-.9 4.7-1.3l18.8-5.2c6.3-1.7 12.5-3.3 18.8-4.8 12.6-3.1 25.4-5.6 38.4-6.1 13-.6 26 1.1 38.7 4 12.7 2.9 25 6.9 37.4 10.9l37 11.9c12.3 4 24.7 7.8 37.2 11.3 12.5 3.5 25.1 6.4 37.8 9 12.7 2.6 25.5 4.8 38.3 6.5 25.7 3.3 51.8 4.4 77.6 2.2-25.9 2.2-51.9 1.3-77.7-2-12.9-1.6-25.7-3.8-38.4-6.4-12.7-2.6-25.4-5.5-37.9-8.9-12.5-3.4-24.9-7.3-37.3-11.3l-37.1-11.9c-12.3-4-24.7-8-37.3-10.9-12.6-2.9-25.6-4.6-38.5-3.9-12.9.5-25.7 3.1-38.3 6.2-6.3 1.6-12.6 3.2-18.8 4.9L819.2 85c-1.6.4-3.1.8-4.7 1.3l-4.6 1.4-9.3 2.9-18.6 5.7c-12.4 3.8-24.9 7.5-37.5 10.4-12.7 2.9-25.6 4.9-38.6 5.2-13 .4-26-.8-38.8-3.6-6.4-1.4-12.6-3.2-18.8-5.3-6.2-2.1-12.2-4.4-18.2-6.9-12-5-23.7-10.7-35.2-16.7l-8.6-4.5-8.6-4.5-8.6-4.5c-1.4-.7-2.9-1.4-4.4-2.1-1.5-.7-2.9-1.4-4.4-2-11.9-5.1-24.6-7.9-37.5-9.2-6.4-.6-12.9-.8-19.4-.8-6.5 0-13 .2-19.4.5-12.9.7-25.8 2.2-38.7 3.9-12.8 1.7-25.7 3.7-38.5 5.5-12.8 1.8-25.7 3.7-38.4 6.1-12.7 2.4-25.4 5.3-37.8 9-12.4 3.7-24.6 8.2-36.4 13.6-23.6 10.8-45.7 24.5-68.6 36.8-2.8 1.6-5.8 3-8.7 4.4l-4.3 2.2c-1.4.7-2.9 1.5-4.4 2.1-5.9 2.7-11.8 5.4-17.9 7.7-12 5-24.3 9-36.8 12.8l-9.4 2.6-2.3.7-2.4.6-4.7 1.2c-6.3 1.6-12.6 2.9-19 4.2-12.7 2.5-25.5 4.6-38.4 6.1-25.1 3.5-51.1 4.7-77 4.7Z" fill="#287EF8"/><path d="M.3 187c26.1.3 52.2-.8 78.1-4 13-1.5 25.8-3.7 38.6-6.3l9.6-2.1 2.4-.5 2.4-.6 4.7-1.2 4.7-1.2 2.4-.6 2.3-.7 9.4-2.7c12.5-3.8 24.8-8 36.8-13 6.1-2.4 12-5.2 17.9-7.9 1.5-.7 2.9-1.4 4.4-2.1l4.4-2.2c2.9-1.5 5.8-2.9 8.7-4.5 22.9-12.4 45.1-26.3 68.6-37.7 11.7-5.7 23.8-10.7 36.1-15 12.3-4.3 24.9-8 37.5-11.2 12.6-3.3 25.4-6.1 38.1-8.9 12.7-2.8 25.4-6 38.1-8.8 12.7-2.8 25.6-5.3 38.5-6.9 6.5-.8 13-1.3 19.5-1.6 6.5-.3 13.1-.3 19.6.2 13 1 26 3.9 37.8 9.8 11.8 5.7 22.6 13.2 33.7 20 11.1 6.9 22.3 13.6 33.8 19.6 5.8 3 11.7 5.8 17.6 8.4 6 2.6 12.1 4.8 18.3 6.6 12.5 3.5 25.5 5.4 38.5 5.6 6.5.1 13-.2 19.5-.9s12.9-1.6 19.3-2.8c6.4-1.2 12.8-2.6 19.1-4.2 6.3-1.6 12.6-3.2 18.9-5.1l37.6-11 37.6-10.8c12.5-3.5 25.4-6.6 38.4-7.3 6.5-.4 13.1-.2 19.6.5 6.5.7 12.9 1.9 19.3 3.4 12.7 3 25.1 7.2 37.5 11.2 12.4 4 24.9 7.9 37.3 11.9 12.4 3.9 24.9 7.7 37.5 11 12.6 3.4 25.4 6.1 38.2 8.5 12.8 2.4 25.7 4.4 38.7 5.9 25.9 3 52.1 3.8 78.1 1.8-26 2.1-52.2 1.4-78.1-1.5-13-1.5-25.9-3.4-38.7-5.8-12.8-2.4-25.6-5.1-38.2-8.4-12.6-3.3-25.1-7.1-37.6-11-12.4-3.9-24.9-7.8-37.3-11.8-12.4-4.1-24.8-8.2-37.5-11.2s-25.7-4.7-38.7-3.8c-13 .8-25.8 3.8-38.3 7.4l-37.6 10.8-37.6 11c-6.2 1.9-12.6 3.6-18.9 5.1-6.3 1.6-12.7 3-19.1 4.2-6.4 1.2-12.9 2.2-19.4 2.8-6.5.6-13 1-19.6.9-13.1-.2-26.1-2-38.7-5.6-6.3-1.8-12.5-4-18.5-6.6-6-2.6-11.9-5.4-17.7-8.4-11.6-6-22.8-12.7-33.9-19.6-11.1-6.8-21.9-14.3-33.6-20-11.6-5.8-24.5-8.7-37.5-9.7-6.5-.5-13-.5-19.5-.2s-13 .8-19.5 1.6c-12.9 1.5-25.7 4-38.5 6.8-12.7 2.8-25.4 6-38.1 8.8-12.7 2.8-25.5 5.7-38.1 8.9-12.6 3.2-25.2 6.9-37.5 11.1-12.3 4.3-24.4 9.3-36.1 15-23.5 11.4-45.6 25.3-68.6 37.7-2.9 1.6-5.8 3-8.7 4.5l-4.4 2.2c-1.5.7-2.9 1.5-4.4 2.1-5.9 2.7-11.8 5.5-17.9 7.9-12 5-24.4 9.2-36.9 13l-9.4 2.7-2.4.7-2.4.6-4.8 1.2-4.8 1.2-2.4.6-2.4.5-9.6 2c-12.8 2.5-25.7 4.7-38.6 6.2-25.4 2.9-51.6 4-77.6 3.5Z" fill="#287EF8"/><path d="M.2 197.5c26.3.8 52.6-.1 78.7-3.3l4.9-.6 2.4-.3 2.4-.4 9.7-1.5 2.4-.4 2.4-.5 4.8-.9c3.2-.6 6.5-1.1 9.7-1.9l9.6-2.1c1.6-.3 3.2-.7 4.8-1.1l4.8-1.2c6.4-1.5 12.7-3.5 19-5.3 12.5-3.9 25-8.2 37-13.3 6.1-2.4 12-5.3 18-8 1.5-.7 2.9-1.4 4.4-2.2l4.4-2.2c2.9-1.5 5.9-3 8.7-4.6 23.1-12.5 45.3-26.6 68.7-38.7 11.7-6 23.7-11.5 35.9-16.3 12.2-4.9 24.6-9.2 37.1-13.3 12.5-4.1 25.1-7.9 37.6-11.8 12.5-3.9 25-8.2 37.5-12.1 6.3-2 12.6-3.8 19-5.5 6.4-1.7 12.8-3.1 19.3-4.3 3.2-.6 6.5-1.1 9.7-1.6 3.3-.4 6.5-.8 9.8-1.1 6.6-.6 13.2-.8 19.7-.4 13.1.8 26.3 4 37.8 10.5 2.8 1.7 5.7 3.3 8.5 5.1 2.8 1.8 5.5 3.7 8.1 5.6l15.9 11.7c10.6 7.8 21.3 15.4 32.4 22.4 5.6 3.5 11.2 6.8 17.1 9.8 5.8 3.1 11.8 5.7 18 7.9 6.2 2.2 12.5 3.9 18.9 5.2 6.4 1.3 12.9 2.1 19.5 2.5 13.1.8 26.2-.1 39.2-2.1 13-1.9 25.8-4.9 38.5-8.2 12.7-3.4 25.3-7.1 37.9-10.9l18.9-5.7c6.3-1.9 12.5-4 18.8-6 12.5-4 25.3-7.6 38.5-8.6 6.6-.5 13.2-.4 19.7.3 6.6.7 13 1.9 19.4 3.4 12.8 3.1 25.2 7.4 37.7 11.5 6.2 2.1 12.5 4 18.8 6l18.8 5.9c12.5 3.9 25.1 7.6 37.9 10.8 12.7 3.3 25.6 5.8 38.6 8 12.9 2.2 26 4.1 39 5.4 26.1 2.7 52.5 3.3 78.7 1.3-26.2 2.1-52.6 1.5-78.7-1.1-13.1-1.3-26.1-3.1-39.1-5.3-12.9-2.2-25.9-4.7-38.6-7.9-12.8-3.2-25.4-6.9-37.9-10.8l-18.8-5.9c-6.3-2-12.5-3.9-18.8-6-12.5-4.1-24.9-8.4-37.7-11.5-6.4-1.5-12.8-2.7-19.4-3.4-6.5-.7-13.1-.8-19.6-.3-13.1 1.1-25.8 4.6-38.3 8.6-6.3 2-12.5 4.1-18.8 6l-18.9 5.7c-12.6 3.8-25.2 7.5-37.9 10.9-12.7 3.4-25.5 6.3-38.6 8.3-13 1.9-26.2 2.9-39.4 2.1-6.6-.4-13.1-1.2-19.6-2.5-6.5-1.3-12.8-3-19.1-5.2-6.2-2.2-12.3-4.8-18.1-7.9-5.8-3-11.5-6.3-17.1-9.8-11.2-7-21.9-14.6-32.5-22.4l-15.9-11.7c-2.7-1.9-5.3-3.8-8.1-5.6-2.7-1.8-5.6-3.4-8.4-5.1-11.4-6.5-24.4-9.7-37.4-10.5-6.5-.4-13.1-.2-19.6.4-3.3.2-6.5.7-9.8 1.1-3.2.5-6.5.9-9.7 1.5-6.5 1.1-12.9 2.6-19.2 4.2-6.4 1.6-12.7 3.5-18.9 5.4-12.5 3.9-25 8.2-37.5 12.1-12.6 3.9-25.1 7.7-37.6 11.7-12.5 4-24.9 8.4-37.1 13.2-12.2 4.8-24.2 10.3-35.9 16.3-23.4 12-45.6 26.1-68.7 38.6-2.9 1.6-5.8 3.1-8.7 4.6l-4.4 2.2c-1.5.7-2.9 1.5-4.4 2.2-6 2.7-11.9 5.6-18 8-12.1 5.2-24.6 9.4-37.1 13.3-6.3 1.8-12.6 3.7-19 5.2l-4.8 1.2c-1.6.4-3.2.8-4.8 1.1l-9.6 2.1c-3.2.7-6.5 1.2-9.7 1.9l-4.8.9-2.4.4-2.4.4-9.7 1.5-2.4.4-2.4.3-4.9.6c-26.2 3.7-52.5 4.5-78.8 3.6Z" fill="#287EF8"/><path d="M.2 208c26.5 1.3 53.1.6 79.4-2.7 26.3-3.1 52.3-8.7 77.7-16.5 3.2-1 6.3-2.1 9.4-3.1 3.1-1 6.3-2.1 9.4-3.3l9.3-3.5c3.1-1.2 6.1-2.5 9.2-3.8l4.6-1.9c1.5-.6 3-1.4 4.5-2.1l9-4.2c3-1.4 5.9-3 8.9-4.5 2.9-1.5 5.9-3 8.8-4.6 23.2-12.7 45.6-27 68.9-39.7 11.7-6.3 23.6-12.2 35.7-17.6 12.1-5.5 24.4-10.5 36.7-15.4 12.3-4.9 24.7-9.6 37-14.6s24.4-10.4 36.7-15.4c12.3-5 24.9-9.4 37.8-12.5 6.5-1.5 13-2.8 19.6-3.6 6.6-.9 13.3-1.2 19.9-1 3.3.2 6.6.5 9.9 1 3.3.6 6.6 1.2 9.8 2.2 3.2 1 6.4 2.1 9.4 3.5 1.5.6 3 1.5 4.5 2.2 1.4.9 2.9 1.6 4.3 2.6 2.8 1.8 5.6 3.6 8.2 5.6 2.7 2 5.3 4.1 7.8 6.2 5.1 4.3 10.1 8.6 15.1 12.9 10.1 8.6 20.2 17.2 30.8 25.1 5.3 3.9 10.8 7.7 16.4 11.2 5.6 3.6 11.4 6.6 17.5 9.2 12.2 5.2 25.1 8.5 38.2 9.9 6.6.7 13.2 1 19.8.9 6.6-.1 13.2-.5 19.8-1.3 13.2-1.5 26.2-4 39-7.2 6.4-1.6 12.8-3.3 19.2-5.1 6.4-1.8 12.7-3.7 19-5.7l19-5.9c6.3-2.1 12.5-4.4 18.7-6.6 12.5-4.5 25.2-8.6 38.5-10 6.6-.7 13.3-.6 19.9 0 6.6.6 13.2 1.9 19.6 3.4 12.9 3.1 25.4 7.6 38 11.8 6.3 2.1 12.6 4.1 18.9 6l19 5.9c12.7 3.9 25.4 7.5 38.3 10.6 12.9 3.1 25.9 5.5 39 7.6 13.1 2.1 26.2 3.7 39.4 4.9 26.4 2.4 53 2.8 79.4.9-26.4 2-53 1.6-79.5-.7-13.2-1.2-26.4-2.8-39.5-4.8-13.1-2.1-26.2-4.4-39.1-7.5-12.9-3.1-25.7-6.7-38.3-10.6l-19-5.9c-6.3-2-12.7-3.9-19-6-12.6-4.2-25.1-8.6-38-11.8-6.4-1.6-12.9-2.8-19.5-3.4-6.6-.6-13.2-.7-19.8 0-13.2 1.3-25.9 5.5-38.3 10-6.2 2.2-12.5 4.5-18.8 6.6l-19 6c-6.3 2-12.7 3.9-19.1 5.7-6.4 1.8-12.8 3.5-19.2 5.1-12.9 3.1-25.9 5.7-39.1 7.2-6.6.8-13.2 1.2-19.9 1.3-6.6.1-13.3-.2-19.9-.9-13.2-1.4-26.3-4.7-38.5-9.9-6.1-2.6-12-5.7-17.7-9.3-5.6-3.5-11.1-7.3-16.4-11.3-10.7-7.9-20.8-16.5-30.9-25.1-5-4.3-10-8.7-15.1-12.9-2.5-2.1-5.1-4.2-7.8-6.2-2.6-2-5.4-3.8-8.2-5.6-1.4-.9-2.8-1.7-4.2-2.5-1.5-.7-2.9-1.5-4.4-2.2-3-1.4-6.1-2.5-9.3-3.4-3.2-1-6.4-1.6-9.6-2.2-3.3-.5-6.5-.8-9.8-1-6.6-.3-13.2 0-19.8.9-6.6.8-13.1 2.1-19.5 3.5-12.9 3.1-25.4 7.4-37.7 12.4-12.3 4.9-24.4 10.4-36.7 15.3-12.3 4.9-24.7 9.7-37 14.5-24.7 9.7-49 20.2-72.3 32.9-23.3 12.6-45.7 26.9-69 39.6-2.9 1.6-5.9 3.1-8.8 4.6-3 1.5-5.9 3.1-8.9 4.5l-9 4.2-4.5 2.1-4.6 1.9c-3.1 1.3-6.1 2.6-9.2 3.8l-9.3 3.5c-3.1 1.2-6.2 2.2-9.4 3.3-3.2 1-6.3 2.1-9.5 3.1-25 8.4-51 14-77.4 17-26.3 3.2-52.9 3.8-79.4 2.4Z" fill="#287EF8"/><path d="m.2 218.5 10 .6c1.7.1 3.3.2 5 .3l5 .1c3.3 0 6.7.2 10 .2l10-.1c13.4-.4 26.8-1.2 40.1-2.9 26.6-3.1 52.9-9 78.4-17l9.5-3.2 4.8-1.6 4.7-1.8 9.4-3.6 9.2-3.9 4.6-2 4.5-2.1 9.1-4.3 8.9-4.6 4.5-2.3 4.4-2.4c23.4-13 46-27.5 69.3-40.8 23.3-13.3 47.4-25 71.6-36.5 12.1-5.7 24.2-11.4 36.2-17.4 12-6 23.6-12.6 35.7-18.5 6-3 12.1-5.8 18.3-8.4 6.2-2.5 12.5-4.8 19-6.8 6.5-1.8 13-3.4 19.6-4.5 3.3-.6 6.7-1 10-1.2 3.4-.3 6.7-.3 10.1-.2 6.7.2 13.4 1.3 19.9 3.3 3.2 1 6.3 2.3 9.4 3.8 3 1.6 5.9 3.3 8.6 5.3 5.6 3.8 10.6 8.3 15.5 12.9 4.8 4.6 9.6 9.4 14.3 14.1 9.5 9.5 19 18.9 29.1 27.7 10.1 8.7 20.6 17.2 32.6 23.1 11.9 6 24.8 10.1 38 12.2 6.6 1.1 13.3 1.7 19.9 1.9 6.7.2 13.4.1 20-.4 13.3-1 26.6-3.2 39.6-6.1 13.1-2.9 26-6.5 38.7-10.5 6.4-2 12.7-4.1 19.1-6.3 6.3-2.2 12.5-4.8 18.7-7.2 12.4-4.9 25.1-9.7 38.5-11.4 6.7-.9 13.4-.9 20.1-.3 6.7.6 13.3 1.8 19.8 3.4 13 3.2 25.7 7.8 38.3 12.1 6.3 2.2 12.7 4.1 19.1 6.1 6.4 2 12.8 4 19.2 5.9 12.8 3.8 25.7 7.5 38.8 10.5 13 3.1 26.3 5.2 39.5 7.1 13.3 1.9 26.6 3.4 39.9 4.5 26.7 2.1 53.6 2.3 80.3.5-26.7 1.9-53.6 1.7-80.3-.3-13.4-1-26.7-2.5-40-4.4-13.3-1.9-26.5-4-39.6-7-13.1-3-26-6.6-38.8-10.4-6.4-1.9-12.8-3.9-19.2-5.9-6.4-2-12.8-3.9-19.2-6.1-12.7-4.3-25.3-8.9-38.3-12-6.5-1.6-13.1-2.8-19.7-3.4-6.7-.6-13.4-.5-20 .4-13.3 1.7-25.9 6.5-38.3 11.4-6.2 2.5-12.4 5-18.7 7.3-6.3 2.3-12.7 4.4-19.1 6.4-12.8 4-25.7 7.6-38.8 10.6-13.1 2.9-26.4 5.1-39.7 6.1-6.7.5-13.4.7-20.1.5-6.7-.2-13.4-.8-20-1.9-13.2-2.4-26.2-6.5-38.2-12.5-6-3-11.8-6.6-17.1-10.6-5.4-4-10.6-8.2-15.7-12.6-10.1-8.8-19.6-18.3-29.1-27.7-4.7-4.7-9.5-9.5-14.3-14.1-4.8-4.6-9.8-9.1-15.3-12.8-2.7-2-5.5-3.7-8.5-5.2s-6.1-2.7-9.2-3.8c-6.3-2-13-3.1-19.6-3.3-3.3-.1-6.7-.1-10 .2-3.3.2-6.6.6-9.9 1.2-6.6 1.1-13.1 2.6-19.5 4.5s-12.7 4.2-18.9 6.7c-6.2 2.5-12.2 5.4-18.2 8.3-12 5.9-23.7 12.5-35.7 18.5-12 6-24.1 11.7-36.2 17.4-24.2 11.4-48.4 23.1-71.6 36.4-23.3 13.2-45.8 27.7-69.3 40.7l-4.4 2.4-4.5 2.3-8.9 4.6-9.1 4.3-4.6 2.1-4.6 2-9.3 3.9-9.4 3.6-4.7 1.8-4.8 1.6-9.5 3.2c-25.6 7.9-51.9 13.8-78.5 16.7-13.3 1.7-26.7 2.4-40.1 2.8l-10 .1c-3.3 0-6.7-.1-10-.2l-5-.1c-1.7 0-3.3-.2-5-.3l-10.3-.7Z" fill="#287EF8"/><path d="M.2 229c54 4.8 108.9-2.1 160.4-18.8 25.7-8.5 50.7-19.4 74.3-32.7 23.6-13.3 46.4-28.1 69.6-42 23.2-14 47.1-26.9 70.8-40 11.9-6.6 23.7-13.2 35.3-20.2 11.6-7.1 22.8-14.6 34.5-21.5 5.8-3.4 11.8-6.7 17.9-9.7 6.1-3 12.4-5.6 18.8-7.9 6.4-2.2 13-4 19.6-5.4 6.7-1.3 13.5-2.1 20.3-1.9 1.7 0 3.4.2 5.1.3 1.7.2 3.4.4 5.1.7 3.4.5 6.7 1.4 9.9 2.5s6.3 2.6 9.3 4.2l2.2 1.3c.7.4 1.4.9 2.1 1.4 1.4.9 2.7 2 4.1 3.1 1.3 1.1 2.7 2.1 4 3.2 1.3 1.1 2.5 2.3 3.7 3.5 2.4 2.4 4.8 4.8 7.1 7.3 4.6 5 9 10.1 13.5 15.2 8.9 10.2 17.7 20.5 27.2 30.2 9.5 9.6 19.4 19 31.1 25.8 11.6 6.9 24.4 11.8 37.6 14.6 13.2 2.9 26.8 3.8 40.3 3.4 13.5-.4 27-2.2 40.3-4.9 13.3-2.7 26.4-6.2 39.3-10.3 6.5-2.1 12.9-4.3 19.2-6.6 6.3-2.4 12.5-5.1 18.7-7.8 12.4-5.5 25-10.8 38.5-13 6.7-1.1 13.6-1.3 20.3-.8 6.8.5 13.5 1.7 20.1 3.3 13.2 3.2 25.9 8 38.8 12.3 6.4 2.2 12.9 4.2 19.4 6.1 6.5 2 13 4 19.5 5.9 13 3.8 26.1 7.4 39.3 10.3 13.2 3 26.6 4.9 40.1 6.7 13.4 1.8 26.9 3.1 40.4 4 27 1.8 54.2 1.9 81.3.2-27 1.8-54.2 1.8-81.3.1-13.5-.9-27-2.2-40.5-3.9-13.4-1.8-26.9-3.7-40.1-6.6-13.3-2.9-26.3-6.5-39.4-10.3-6.5-1.9-13-3.9-19.5-5.9-6.5-2-13-3.9-19.4-6.1-12.8-4.3-25.6-9.1-38.7-12.3-6.6-1.6-13.3-2.8-20-3.3-6.7-.5-13.5-.2-20.2.8-13.4 2.2-25.9 7.6-38.3 13-6.2 2.7-12.4 5.5-18.8 7.9-6.3 2.4-12.8 4.6-19.2 6.7-12.9 4.1-26 7.7-39.3 10.4-13.3 2.7-26.8 4.5-40.4 4.9-13.6.4-27.2-.5-40.5-3.4s-26.2-7.8-37.9-14.7c-5.8-3.5-11.4-7.4-16.5-11.9-5.1-4.4-10.1-9.1-14.8-14-9.5-9.7-18.4-20-27.3-30.2-4.4-5.1-8.9-10.2-13.4-15.2-2.3-2.5-4.6-5-7-7.3-1.2-1.2-2.4-2.3-3.7-3.4-1.3-1.1-2.6-2.1-3.9-3.2-1.3-1-2.6-2.1-4-3-.7-.5-1.4-1-2.1-1.4l-2.2-1.3c-2.9-1.6-6-3.1-9.2-4.1-3.2-1.1-6.4-2-9.8-2.5-1.7-.3-3.3-.5-5-.7-1.7-.1-3.4-.3-5-.3-13.5-.4-26.9 2.9-39.6 7.2-6.4 2.3-12.6 4.9-18.7 7.9s-12 6.3-17.8 9.7C434 61.5 422.8 69 411.2 76.1c-11.6 7.1-23.4 13.7-35.3 20.2-23.8 13.1-47.6 25.9-70.9 39.9-23.3 13.9-46 28.7-69.7 41.9-23.6 13.3-48.6 24.2-74.4 32.7C109.1 227.3 54.2 234 .2 229Z" fill="#287EF8"/><path d="m.1 239.5 10.3.9c1.7.1 3.4.3 5.1.4l5.1.2 5.1.2c1.7.1 3.4.2 5.1.2l10.3.1h2.6l2.6-.1 5.1-.2c3.4-.1 6.9-.2 10.3-.5l10.3-.8c3.4-.3 6.8-.8 10.2-1.1l5.1-.6 5.1-.8 10.2-1.6 10.1-1.9c1.7-.3 3.4-.6 5-1l5-1.2c13.4-2.9 26.6-6.8 39.6-11.1l9.7-3.4 2.4-.8 2.4-.9 4.8-1.9 4.8-1.9 2.4-.9 2.4-1 9.4-4.1c1.6-.7 3.1-1.4 4.7-2.1l4.6-2.2c3.1-1.5 6.2-2.9 9.2-4.5l9.1-4.8c1.5-.8 3-1.6 4.5-2.5 1.5-.8 3-1.7 4.5-2.5 23.9-13.5 46.8-28.7 70.1-43.4 23.2-14.7 46.8-28.9 69.9-43.6 11.6-7.4 23-15 34.1-23 11.1-8.1 21.9-16.6 33.3-24.4 5.7-3.9 11.5-7.6 17.5-11 6-3.4 12.2-6.4 18.6-9 6.4-2.7 13-4.6 19.7-6.3 3.4-.8 6.8-1.4 10.2-1.8 3.4-.4 6.9-.6 10.3-.5 6.9.1 13.8 1.3 20.3 3.8 6.5 2.4 12.4 6.3 17.6 10.8 5.2 4.6 9.8 9.8 14.1 15.1 4.3 5.4 8.5 10.8 12.6 16.3 8.3 11 16.4 22 25.3 32.5 4.4 5.2 9 10.3 13.9 15.2 2.4 2.4 4.9 4.7 7.5 7 2.6 2.2 5.3 4.3 8.2 6.2 5.6 3.9 11.6 7.3 17.8 10.1 6.2 2.9 12.7 5.2 19.3 7 13.2 3.7 26.9 5.3 40.6 5.5 13.7.1 27.4-1.2 40.9-3.5 13.5-2.4 26.8-5.8 39.9-10 6.5-2.1 13-4.4 19.4-6.9 6.4-2.5 12.6-5.4 18.8-8.4 6.2-3 12.4-6 18.8-8.6 6.4-2.6 12.9-4.8 19.7-6.2 6.8-1.4 13.7-1.8 20.6-1.4 6.9.4 13.7 1.5 20.4 3.1 13.4 3.2 26.3 8.1 39.2 12.6 6.5 2.3 13 4.3 19.6 6.2 6.6 2 13.1 4 19.7 5.9 13.2 3.8 26.4 7.4 39.9 10.2 13.4 2.9 27 4.7 40.7 6.3 13.6 1.6 27.3 2.8 41 3.6 27.4 1.5 54.9 1.4 82.3-.2-27.4 1.7-54.9 1.9-82.4.5-13.7-.7-27.4-1.9-41.1-3.4-13.6-1.6-27.3-3.4-40.7-6.2-13.5-2.8-26.7-6.4-39.9-10.2-6.6-1.9-13.2-4-19.7-5.9-6.6-2-13.2-4-19.6-6.2-13-4.4-25.9-9.3-39.2-12.5-6.7-1.6-13.4-2.7-20.3-3.1-6.8-.3-13.7 0-20.4 1.4-6.7 1.4-13.2 3.5-19.6 6.1-6.3 2.6-12.5 5.6-18.7 8.6-6.2 3-12.4 5.9-18.8 8.4s-12.9 4.9-19.4 7c-13.1 4.2-26.4 7.7-40 10.1-13.5 2.4-27.3 3.7-41.1 3.6-13.8-.2-27.5-1.8-40.8-5.5-6.6-1.8-13.1-4.2-19.4-7.1-6.3-2.9-12.3-6.3-18-10.2-2.9-1.9-5.6-4.1-8.2-6.3-2.6-2.2-5.2-4.6-7.6-7-4.9-4.9-9.5-10-13.9-15.2-8.9-10.5-17.1-21.6-25.4-32.5-4.1-5.5-8.3-11-12.6-16.3-4.3-5.3-8.8-10.5-13.9-15S547.4 31 541 28.7c-6.4-2.5-13.2-3.6-20-3.7-3.4-.1-6.8.2-10.2.5-3.4.4-6.8 1-10.1 1.8-6.6 1.7-13.2 3.6-19.5 6.3-6.3 2.6-12.5 5.6-18.5 9-6 3.4-11.8 7-17.4 10.9-11.3 7.8-22.1 16.2-33.3 24.3-11.2 8-22.6 15.6-34.2 23-23.2 14.8-46.7 28.9-70 43.6-23.2 14.6-46.2 29.8-70.1 43.3-1.5.9-3 1.7-4.5 2.5s-3 1.7-4.5 2.5l-9.1 4.8c-3 1.6-6.2 3-9.3 4.5l-4.7 2.2c-1.5.7-3.1 1.5-4.7 2.1l-9.5 4.1-2.4 1-2.4.9-4.8 1.9-4.8 1.9-2.4.9-2.4.8-9.7 3.4c-13.1 4.2-26.3 8.1-39.7 11l-5 1.1c-1.7.4-3.4.7-5.1 1l-10.1 1.9-10.2 1.5-5.1.8-5.1.6c-3.4.4-6.8.8-10.2 1.1l-10.3.7c-3.4.3-6.9.4-10.3.5l-5.1.2-2.6.1h-2.6l-10.1-.1c-1.7 0-3.4-.1-5.1-.2l-5.1-.3-5.1-.3c-1.7-.1-3.4-.3-5.1-.4l-10.5-.9Z" fill="#287EF8"/><path d="m.1 250 10.4 1.1c1.7.2 3.5.4 5.2.5l5.2.3 5.2.3 2.6.2c.9 0 1.7 0 2.6.1l10.4.2c1.7.1 3.5 0 5.2-.1l5.2-.1 5.2-.1c1.7 0 3.5-.2 5.2-.3l10.4-.7 10.4-1.2c1.7-.2 3.5-.4 5.2-.6l5.2-.8c3.4-.6 6.9-1 10.3-1.6 6.8-1.3 13.7-2.5 20.4-4.2l5.1-1.2 2.5-.6 2.5-.7 10.1-2.8c1.7-.4 3.3-1 5-1.5l5-1.6c3.3-1 6.7-2 9.9-3.3l9.8-3.5c3.3-1.2 6.5-2.5 9.7-3.8l4.9-1.9 4.8-2.1 9.6-4.2 9.4-4.5 4.7-2.3 4.6-2.4 9.2-4.9c3-1.7 6.1-3.4 9.1-5.1 24.1-13.9 47.3-29.4 70.5-44.9 23.1-15.5 46.3-31 68.8-47.4 11.2-8.2 22.3-16.7 32.9-25.7 10.6-9 21-18.4 31.9-27 5.5-4.3 11.1-8.4 17-12.2 5.8-3.8 12-7.2 18.3-10.1 6.3-3 13-5.2 19.7-7.2 6.7-1.8 13.7-2.9 20.8-2.8 3.5.1 7 .4 10.5 1 3.4.7 6.8 1.6 10.1 3 6.5 2.7 12.3 6.9 17.3 11.8s9.3 10.5 13.3 16.2c4 5.7 7.9 11.5 11.7 17.3 7.6 11.7 15.1 23.4 23.3 34.7 4.1 5.6 8.4 11.1 12.9 16.4 4.5 5.3 9.5 10.2 14.9 14.5 5.4 4.3 11.2 8.2 17.3 11.5 6.1 3.3 12.5 6.1 19.1 8.3 13.2 4.5 27 6.9 40.8 7.7 13.9.8 27.8-.1 41.6-2.1 13.8-2.1 27.3-5.3 40.6-9.6 6.6-2.1 13.2-4.5 19.6-7.2 6.4-2.6 12.7-5.7 18.9-8.9 6.2-3.2 12.3-6.5 18.7-9.4 6.3-2.9 12.9-5.4 19.7-7.1 3.4-.9 6.9-1.4 10.3-1.8 1.7-.2 3.5-.2 5.2-.3 1.7-.1 3.5 0 5.2 0 7 .2 13.9 1.3 20.7 2.8 13.6 3.1 26.7 8.2 39.8 12.8 6.6 2.3 13.2 4.4 19.9 6.4 6.7 2 13.3 4 20 6 13.4 3.9 26.9 7.4 40.5 10.2 13.6 2.8 27.5 4.5 41.3 6 13.9 1.4 27.7 2.5 41.7 3.1 27.8 1.3 55.7 1 83.5-.6-27.8 1.6-55.7 2-83.5.8-13.9-.6-27.8-1.6-41.7-3-13.9-1.4-27.7-3.1-41.4-5.9-13.7-2.8-27.2-6.3-40.6-10.1-6.7-1.9-13.4-4-20-6-6.7-2-13.3-4-19.9-6.3-13.2-4.6-26.2-9.6-39.8-12.7-6.8-1.5-13.7-2.6-20.6-2.8-1.7 0-3.5-.1-5.2 0-1.7.1-3.5.2-5.2.4-3.4.4-6.9.9-10.2 1.8-6.7 1.7-13.3 4.1-19.6 7.1-6.3 2.9-12.5 6.2-18.6 9.4-6.2 3.2-12.4 6.3-18.9 9-6.4 2.7-13 5.1-19.6 7.2-13.3 4.3-26.9 7.6-40.7 9.7-13.8 2-27.8 2.9-41.7 2.1-13.9-.8-27.8-3.2-41.1-7.7-6.6-2.3-13-5.1-19.2-8.4-6.2-3.3-12-7.2-17.5-11.5s-10.5-9.3-15-14.6c-4.6-5.3-8.9-10.8-13-16.4-8.2-11.3-15.8-23-23.4-34.7-3.8-5.8-7.7-11.6-11.7-17.3-4-5.7-8.2-11.2-13.2-16.1-4.9-4.9-10.6-9-17-11.6-3.2-1.3-6.5-2.3-9.9-3-3.4-.6-6.8-.9-10.3-1-6.9 0-13.8 1-20.5 2.8-6.7 1.9-13.3 4.1-19.5 7.1-6.3 2.9-12.4 6.2-18.2 10-5.8 3.8-11.5 7.8-17 12.1-11 8.6-21.3 17.9-31.9 26.9-10.6 9-21.7 17.5-33 25.7-22.5 16.5-45.7 31.9-68.9 47.4-23.2 15.4-46.4 30.9-70.6 44.8-3 1.7-6.1 3.4-9.1 5.1l-9.3 4.9-4.6 2.4-4.7 2.3-9.4 4.5-9.6 4.2-4.8 2.1-4.9 1.9c-3.2 1.3-6.5 2.6-9.7 3.8l-9.9 3.5c-3.3 1.2-6.6 2.2-9.9 3.2l-5 1.6c-1.7.5-3.3 1.1-5 1.5l-10.1 2.7-2.5.7-2.5.6-5.1 1.2c-6.8 1.7-13.6 2.9-20.5 4.2-3.4.6-6.9 1.1-10.3 1.6l-5.2.8c-1.7.2-3.5.4-5.2.6l-10.4 1.1-10.4.7c-1.7.1-3.5.3-5.2.3l-5.2.1-5-.2c-1.7 0-3.5.1-5.2 0l-10.4-.2c-.9 0-1.7 0-2.6-.1l-2.6-.2-5.2-.3-5.2-.3c-1.7-.1-3.5-.3-5.2-.5L.1 250Z" fill="#287EF8"/><path d="m.1 260.5 10.5 1.3 2.6.3 1.3.2 1.3.1 5.3.4 5.3.4 2.6.2 2.7.1 10.6.3c1.8.1 3.5 0 5.3 0l5.3-.1 5.3-.1c1.8-.1 3.5-.2 5.3-.3 3.5-.2 7.1-.4 10.6-.7l10.5-1.2c14-1.8 28-4.1 41.7-7.5l5.2-1.2c1.7-.4 3.4-.9 5.1-1.4l10.2-2.8 10.1-3.2 5-1.6 5-1.8c3.3-1.2 6.7-2.4 10-3.6l9.8-3.9c1.6-.7 3.3-1.3 4.9-2l4.8-2.1c3.2-1.5 6.5-2.8 9.7-4.3 6.3-3.1 12.8-6.1 18.9-9.5 3.1-1.7 6.3-3.3 9.3-5 3.1-1.7 6.2-3.5 9.2-5.3 24.4-14.3 47.8-30.2 70.9-46.6 23.1-16.4 45.8-33.2 67.5-51.3 5.4-4.5 10.8-9.1 16-13.9 2.6-2.3 5.2-4.8 7.8-7.2 2.6-2.4 5.1-4.9 7.7-7.3 10.1-9.9 20-20 30.6-29.4 2.6-2.4 5.4-4.6 8.1-6.9 2.8-2.2 5.6-4.4 8.5-6.4 2.8-2.1 5.9-4 8.8-5.9 1.5-.9 3.1-1.8 4.6-2.7.8-.4 1.5-.9 2.3-1.3l2.4-1.2 2.4-1.2c.8-.4 1.6-.8 2.4-1.1l4.9-2.1c.8-.4 1.6-.7 2.5-1l2.5-.9c1.7-.6 3.3-1.2 5-1.7 1.7-.5 3.4-.9 5.1-1.4.9-.2 1.7-.4 2.6-.5.9-.2 1.7-.4 2.6-.5 3.5-.6 7.1-.8 10.6-.9 3.6 0 7.1.4 10.6 1.1 3.5.7 6.9 1.9 10.2 3.3 3.2 1.5 6.3 3.3 9.2 5.5.7.5 1.4 1.1 2.1 1.7.7.6 1.4 1.1 2 1.8 1.3 1.2 2.6 2.5 3.8 3.8 4.8 5.3 8.8 11.2 12.6 17.2 3.7 6 7.3 12.1 10.8 18.3 7 12.3 13.8 24.7 21.4 36.6 3.8 6 7.7 11.8 12 17.4 4.2 5.7 8.9 11 14.1 15.7 10.4 9.5 22.5 17.1 35.6 22.4 13 5.4 26.9 8.6 40.9 10.1s28.2 1.2 42.2-.5c14-1.7 27.9-4.8 41.3-9 6.7-2.1 13.4-4.6 19.9-7.3 6.5-2.7 12.8-5.9 19-9.4 6.2-3.4 12.3-7 18.6-10.2 6.3-3.2 12.8-6.2 19.6-8.1 1.7-.5 3.4-1 5.2-1.3l2.6-.6c.9-.2 1.8-.3 2.6-.4.9-.1 1.8-.3 2.6-.4l2.7-.2 2.7-.2h2.7c7.1 0 14.2.9 21.1 2.4 13.9 3 27.1 8.2 40.4 12.9 6.7 2.4 13.4 4.5 20.2 6.5l20.3 6c13.6 3.9 27.3 7.4 41.2 10.1 6.9 1.4 13.9 2.5 20.9 3.4l10.5 1.2c3.5.3 7 .8 10.6 1.1 14.1 1.3 28.2 2.2 42.3 2.7 28.3 1 56.6.5 84.8-1-28.2 1.6-56.5 2.2-84.8 1.2-14.1-.5-28.3-1.3-42.4-2.6-3.5-.3-7-.7-10.6-1l-10.5-1.2c-7-.9-14-2-21-3.3-13.9-2.7-27.6-6.2-41.2-10.1l-20.3-6c-6.8-2-13.5-4.1-20.2-6.5-13.3-4.7-26.6-9.9-40.4-12.8-6.9-1.5-13.9-2.4-21-2.4h-2.6l-2.6.2-2.6.2c-.9.1-1.7.2-2.6.4-.9.1-1.7.2-2.6.4l-2.6.5c-1.7.3-3.4.9-5.1 1.3-6.8 2-13.2 4.9-19.5 8.1-6.3 3.2-12.4 6.8-18.6 10.2-6.2 3.4-12.5 6.7-19 9.4-6.5 2.8-13.2 5.2-19.9 7.4-13.5 4.3-27.4 7.4-41.4 9.1-14.1 1.7-28.3 2-42.4.5-14.1-1.5-28.1-4.7-41.2-10.1-13.1-5.4-25.4-12.9-35.9-22.6-5.2-4.8-9.9-10.2-14.2-15.9-4.3-5.7-8.3-11.5-12.1-17.5-7.6-12-14.4-24.4-21.4-36.7-3.5-6.1-7.1-12.3-10.8-18.3-3.7-6-7.7-11.9-12.4-17-1.2-1.3-2.4-2.5-3.7-3.7-.6-.6-1.3-1.2-2-1.7-.7-.6-1.3-1.2-2-1.7-2.8-2.1-5.8-3.9-9-5.4-3.2-1.4-6.5-2.5-10-3.2-3.4-.6-6.9-1.1-10.4-1.1s-7 .2-10.5.8c-.9.1-1.7.3-2.6.5-.9.2-1.7.3-2.6.5-1.7.4-3.4.8-5.1 1.4-1.7.5-3.3 1.1-5 1.7l-2.5.9c-.8.3-1.7.6-2.5 1l-4.9 2.1c-.8.3-1.6.7-2.4 1.1l-2.4 1.2-2.1.9c-.8.4-1.5.9-2.3 1.3-1.5.9-3.1 1.7-4.6 2.7-3 1.9-6 3.8-8.8 5.9-2.9 2-5.6 4.2-8.4 6.4-2.7 2.3-5.5 4.5-8.1 6.8-10.6 9.3-20.5 19.5-30.6 29.3-2.5 2.5-5.1 4.9-7.7 7.3l-7.8 7.2c-5.3 4.7-10.6 9.3-16.1 13.9-21.8 18.1-44.6 34.9-67.6 51.3-23.1 16.3-46.5 32.3-71 46.5-3.1 1.8-6.1 3.5-9.2 5.3-3.1 1.7-6.2 3.3-9.4 5-6.2 3.4-12.6 6.4-19 9.5-3.2 1.5-6.5 2.9-9.7 4.3l-4.9 2.1c-1.6.7-3.3 1.3-4.9 2l-9.9 3.9c-3.3 1.2-6.7 2.4-10 3.6l-5 1.8-5.1 1.6-9.9 3.3-10.2 2.8c-1.7.4-3.4 1-5.1 1.4l-5.2 1.2c-13.7 3.4-27.7 5.7-41.8 7.4l-10.6 1.1c-3.5.3-7.1.5-10.6.7-1.8.1-3.5.2-5.3.3l-5.2.1-5.3.1c-1.8 0-3.5.1-5.3 0l-10.6-.3-2.7-.1-2.6-.2-5.3-.4-5.3-.4-1.3-.1-1.3-.2-2.6-.3-10.6-1.2Z" fill="#287EF8"/><path d="M.1 271c14.2 2.1 28.5 3.4 42.9 3.7 3.6 0 7.2-.1 10.8-.1 1.8 0 3.6 0 5.4-.1l5.4-.3 5.4-.3c1.8-.1 3.6-.2 5.4-.4l10.7-1.2 2.7-.3 2.7-.4 5.3-.8c3.5-.5 7.1-1 10.6-1.8l10.6-2.1c3.5-.8 7-1.7 10.5-2.5 1.7-.4 3.5-.8 5.2-1.3l5.2-1.5c3.5-1 6.9-1.9 10.4-3 6.8-2.2 13.7-4.3 20.4-6.9 27.1-9.7 52.9-22.5 77.7-37.1 24.7-14.7 48.3-31.1 71.3-48.4 22.9-17.3 45.2-35.6 66.1-55.3 5.2-5 10.3-10 15.4-15.1 5-5.2 9.9-10.4 14.7-15.8 9.6-10.7 19-21.6 29.3-31.6 5.2-5 10.5-9.9 16.1-14.3l2.1-1.7 2.2-1.6c1.5-1 2.9-2.1 4.4-3.1 3-1.9 6-4 9.2-5.7 3.1-1.9 6.4-3.3 9.6-4.9 1.6-.7 3.3-1.4 5-2l2.5-1 2.6-.9c.9-.3 1.7-.6 2.6-.8.9-.2 1.7-.5 2.6-.7 1.8-.4 3.5-.9 5.3-1.1 1.8-.4 3.6-.5 5.4-.8.9-.1 1.8-.1 2.7-.2l1.4-.1h1.4c7.2 0 14.5 1.4 21.1 4.7l2.4 1.3 2.3 1.4c.4.2.8.5 1.1.7l1.1.8c.7.6 1.5 1.1 2.2 1.7 1.3 1.2 2.7 2.4 4 3.7 1.3 1.3 2.5 2.6 3.6 4 4.6 5.6 8.4 11.8 11.8 18.1 3.4 6.3 6.7 12.7 9.9 19.2 6.4 12.9 12.5 25.9 19.4 38.5 3.5 6.3 7.1 12.5 11.1 18.5 3.9 6 8.2 11.7 13.2 16.9 9.8 10.5 21.7 18.9 34.5 25.1 12.9 6.2 26.8 10.3 41 12.5 28.4 4.4 57.6 1.5 85-7 6.9-2.1 13.6-4.6 20.2-7.4 1.6-.7 3.3-1.4 4.9-2.2l4.8-2.4c3.2-1.7 6.3-3.4 9.4-5.2 6.2-3.6 12.3-7.4 18.5-11 6.3-3.5 12.7-6.8 19.5-9.2.8-.3 1.7-.6 2.6-.8l2.6-.8c1.7-.4 3.5-.9 5.3-1.2l2.7-.4c.9-.1 1.8-.3 2.7-.4l2.7-.2c.9-.1 1.8-.2 2.7-.2 7.2-.3 14.4.5 21.5 1.9 14.1 2.9 27.6 8.2 41.1 13 6.8 2.5 13.6 4.7 20.5 6.7l20.7 6.1c13.8 3.9 27.8 7.5 41.9 10.1 14.1 2.8 28.4 4.2 42.7 5.3 14.3 1.1 28.7 1.9 43 2.2 28.7.7 57.5 0 86.2-1.4-28.7 1.5-57.5 2.3-86.2 1.6-14.4-.3-28.7-1-43.1-2.1-14.3-1.1-28.7-2.5-42.8-5.2-14.1-2.6-28.1-6.2-41.9-10.1l-20.7-6.1c-6.9-2-13.8-4.2-20.5-6.7-13.5-4.9-26.9-10.1-41-13-7-1.4-14.2-2.2-21.3-1.9-.9 0-1.8.1-2.7.2l-2.7.2c-.9.1-1.8.2-2.7.4l-2.6.4c-1.7.4-3.5.8-5.2 1.2l-2.6.8c-.9.3-1.7.5-2.5.8-6.8 2.4-13.2 5.6-19.4 9.2-6.2 3.6-12.3 7.4-18.5 11-3.1 1.8-6.3 3.6-9.4 5.2-1.6.8-3.2 1.6-4.9 2.4-1.6.8-3.3 1.5-4.9 2.2-6.6 2.9-13.4 5.3-20.2 7.5-27.5 8.5-56.9 11.5-85.4 7.1-14.2-2.2-28.2-6.3-41.2-12.6-13-6.3-25-14.7-34.8-25.3-.6-.7-1.2-1.3-1.8-2l-1.8-2c-1.2-1.3-2.3-2.8-3.4-4.2-1.1-1.4-2.1-2.9-3.2-4.4l-3-4.5c-4-6-7.6-12.2-11.1-18.5-6.9-12.6-13.1-25.6-19.5-38.5-3.2-6.4-6.5-12.8-9.9-19.2-3.4-6.3-7.1-12.5-11.7-18-1.1-1.4-2.3-2.7-3.6-4-1.2-1.3-2.6-2.4-3.9-3.6-.7-.6-1.4-1.1-2.1-1.6l-1.1-.8c-.4-.3-.7-.5-1.1-.7l-2.3-1.4-2.4-1.2c-6.4-3.2-13.5-4.6-20.6-4.6h-1.3l-1.3.1c-.9.1-1.8.1-2.7.2-1.8.2-3.5.4-5.3.7-1.8.3-3.5.7-5.2 1.1-.9.2-1.7.5-2.6.7-.9.2-1.7.5-2.6.8l-2.5.9-2.5 1c-1.7.7-3.3 1.3-5 2-3.2 1.6-6.5 3-9.6 4.9-3.2 1.7-6.1 3.7-9.1 5.6-1.5 1-2.9 2.1-4.4 3.1l-2.2 1.6-2.1 1.7c-5.7 4.4-10.9 9.3-16.1 14.3-10.3 10-19.7 20.9-29.3 31.6-4.8 5.3-9.7 10.6-14.7 15.8-5 5.1-10.2 10.2-15.4 15.1-20.9 19.7-43.2 38-66.2 55.3-23 17.3-46.6 33.7-71.4 48.4-24.8 14.6-50.7 27.4-77.8 37-6.7 2.6-13.6 4.6-20.5 6.8-3.4 1.1-6.9 2-10.4 2.9l-5.2 1.4c-1.7.4-3.5.8-5.2 1.3-3.5.8-7 1.7-10.5 2.5l-10.6 2c-3.5.7-7.1 1.2-10.6 1.8l-5.3.8-2.7.4-2.7.3-11.2 1.4c-1.8.2-3.6.3-5.4.4l-5.4.3-5.4.3c-1.8 0-3.6.1-5.4.1-3.6 0-7.2.1-10.8.1-14.3-.3-28.6-1.6-42.8-3.8Z" fill="#287EF8"/><path d="M0 281.5c14.4 2.4 29 3.9 43.6 4.2 3.7 0 7.3 0 11-.1 1.8 0 3.7 0 5.5-.1l5.5-.3 5.5-.3 2.7-.2 2.7-.3 10.9-1.1c29-3.7 57.5-11 84.8-21.3l5.1-1.9 5.1-2.1 10.1-4.2 10-4.5c1.7-.8 3.3-1.5 5-2.3l4.9-2.4c3.3-1.6 6.6-3.2 9.8-4.9l9.7-5.2c6.4-3.5 12.7-7.2 19-10.9 25-15.1 48.8-32.2 71.6-50.5 22.8-18.3 44.4-38.1 64.4-59.4 10-10.6 19.5-21.8 28.6-33.2 4.6-5.7 9.1-11.4 13.7-17.1 4.6-5.6 9.4-11.2 14.3-16.6 10-10.7 20.8-20.7 33.4-28.4l2.3-1.5c.8-.5 1.6-.9 2.4-1.3l4.9-2.6 5-2.2c.8-.4 1.7-.8 2.5-1.1l2.6-1c3.5-1.2 7-2.3 10.6-3 1.8-.4 3.6-.6 5.4-.9 1.8-.1 3.7-.3 5.5-.3 1.8-.1 3.7.1 5.5.2 1.8.3 3.7.5 5.5.9 1.8.3 3.6 1 5.3 1.6 1.7.7 3.4 1.4 5 2.3.8.5 1.7.8 2.4 1.4l2.3 1.5c.8.5 1.5 1.1 2.2 1.7.7.6 1.5 1.1 2.1 1.8 2.7 2.5 5.2 5.3 7.4 8.2 4.4 5.9 7.9 12.4 11.1 19 3.2 6.6 6.1 13.3 9 20 5.8 13.4 11.3 27 17.6 40.2 3.1 6.6 6.5 13.1 10.1 19.4 3.6 6.3 7.5 12.5 12.2 18.1 9.3 11.2 20.7 20.7 33.4 27.8 12.7 7.2 26.6 12.1 40.8 15.1 14.3 2.9 28.9 4 43.5 3.3 14.6-.7 29-3.2 43-7.4 7-2.1 13.9-4.6 20.6-7.5 6.7-2.9 13.2-6.2 19.4-10 6.2-3.8 12.3-7.9 18.5-11.7 6.2-3.9 12.6-7.5 19.4-10.3 6.8-2.8 14-4.7 21.3-5.2 7.3-.6 14.7 0 21.9 1.3 14.5 2.6 28.1 8.1 41.8 13.1 13.7 5.2 27.8 8.9 41.8 13.1 14.1 4 28.2 7.5 42.6 10.2 7.2 1.3 14.4 2.4 21.7 3.2 3.6.4 7.3.7 10.9 1l10.9.8c14.6 1 29.2 1.6 43.8 1.8 29.2.5 58.4-.4 87.6-1.8-29.2 1.4-58.4 2.4-87.6 2-14.6-.2-29.2-.7-43.8-1.7l-10.9-.8c-3.6-.3-7.3-.6-10.9-1-7.3-.7-14.5-1.8-21.7-3.1-14.4-2.6-28.6-6.2-42.7-10.1-14-4.2-28.2-7.8-41.9-13.1-13.7-5-27.4-10.4-41.8-13-7.2-1.3-14.5-1.8-21.7-1.2-7.3.5-14.4 2.4-21.1 5.2-6.7 2.8-13.1 6.4-19.3 10.3-6.2 3.9-12.2 8-18.5 11.8-6.2 3.8-12.8 7.2-19.5 10.1-6.7 2.9-13.6 5.4-20.6 7.5-14 4.2-28.6 6.7-43.2 7.4-14.6.8-29.4-.3-43.7-3.2-14.3-3-28.3-8-41.1-15.2-12.8-7.2-24.3-16.6-33.7-28-4.7-5.6-8.7-11.9-12.3-18.2-3.7-6.3-7-12.9-10.2-19.5-6.3-13.2-11.8-26.8-17.6-40.2-2.9-6.7-5.9-13.4-9-20-3.2-6.6-6.6-13-10.9-18.9-2.2-2.9-4.6-5.7-7.2-8.1-.6-.7-1.4-1.2-2.1-1.8-.7-.6-1.4-1.2-2.1-1.7l-2.3-1.5c-.7-.5-1.6-.9-2.4-1.3-1.6-.9-3.3-1.5-4.9-2.3-1.7-.5-3.4-1.2-5.2-1.5-1.7-.5-3.6-.6-5.3-.9-1.8-.1-3.6-.3-5.4-.2-1.8 0-3.6.2-5.4.3-1.8.3-3.6.4-5.4.8-3.6.7-7.1 1.7-10.5 2.9l-2.6 1c-.8.3-1.7.7-2.5 1.1l-5 2.2-4.7 2.9c-.8.4-1.6.8-2.4 1.3l-2.3 1.4c-12.5 7.6-23.3 17.5-33.2 28.2-5 5.4-9.7 10.9-14.3 16.6-4.6 5.7-9.2 11.4-13.7 17.1-9.1 11.4-18.6 22.6-28.6 33.2-20 21.3-41.7 41.1-64.5 59.4-22.8 18.3-46.7 35.3-71.7 50.5-6.3 3.8-12.6 7.5-19 10.9l-9.7 5.2c-3.2 1.7-6.5 3.3-9.8 4.9l-4.9 2.4c-1.6.8-3.3 1.5-5 2.3l-10 4.5-10.1 4.2-5.1 2.1-5.1 1.9c-27.4 10.2-55.9 17.5-84.9 21.1l-10.9 1.1-2.7.3-2.7.2-5.5.3-5.5.3c-1.8.1-3.7 0-5.5.1-3.7 0-7.3.1-11 0-14.9-.6-29.5-2.1-43.9-4.6Z" fill="#287EF8"/><path d="M0 292c14.6 2.8 29.4 4.3 44.3 4.8l11.1.1c3.7-.1 7.4-.3 11.1-.4 3.7-.1 7.4-.5 11.1-.8l5.6-.5c1.9-.2 3.7-.5 5.5-.7 14.8-1.7 29.3-4.8 43.7-8.5l5.4-1.4 2.7-.7c.9-.3 1.8-.5 2.7-.8l10.7-3.3c3.5-1.1 7-2.4 10.5-3.6 1.7-.6 3.5-1.2 5.3-1.9l5.2-2 5.2-2 2.6-1 2.6-1.1 10.3-4.4c3.4-1.5 6.7-3.1 10.1-4.7 1.7-.8 3.4-1.5 5-2.4l5-2.5 5-2.5c1.7-.8 3.3-1.7 4.9-2.6l9.8-5.3c3.3-1.8 6.4-3.7 9.7-5.6l4.8-2.8 4.7-2.9c12.7-7.7 24.9-16.2 36.9-24.9l8.9-6.7 8.8-6.9c2.9-2.3 5.8-4.7 8.6-7.1 2.8-2.4 5.7-4.7 8.5-7.2 22.5-19.5 43.5-40.6 62.5-63.5l7.1-8.6 6.8-8.8c4.5-5.9 8.9-11.9 13.2-18 8.6-12.1 17.3-24.2 26.9-35.7 2.5-2.8 4.8-5.7 7.4-8.3 1.3-1.3 2.5-2.7 3.9-4l4-3.9c.7-.7 1.4-1.3 2.1-1.9l2.1-1.8c1.4-1.2 2.8-2.5 4.3-3.6l4.4-3.4c1.5-1.1 3.1-2.1 4.6-3.2l2.3-1.6 2.4-1.4c1.6-.9 3.2-1.9 4.9-2.8 3.4-1.6 6.7-3.4 10.2-4.7 7-2.7 14.4-4.5 21.9-4.5 3.7 0 7.5.3 11.2 1.2 3.6.9 7.2 2.2 10.4 4.2l1.2.7c.4.3.8.5 1.2.8.8.5 1.6 1.1 2.3 1.6 1.4 1.2 2.9 2.4 4.2 3.8l2 2 1.8 2.1c1.2 1.4 2.3 3 3.3 4.5 4.2 6.2 7.4 13 10.3 19.9 2.9 6.9 5.6 13.8 8.2 20.8 5.2 13.9 10.1 28 15.8 41.7 2.8 6.9 5.8 13.7 9.2 20.3 3.3 6.6 6.9 13.1 11.2 19.2 4.3 6 9.2 11.6 14.6 16.7s11.2 9.7 17.4 13.7c12.4 8.1 26.2 14 40.6 17.8 28.7 7.6 59.4 7.1 88-.9 7.2-2 14.2-4.5 21-7.4 3.4-1.4 6.8-3 10.1-4.7 3.3-1.7 6.5-3.5 9.6-5.5 12.6-7.8 24.2-17.3 37.7-23.8.8-.4 1.7-.8 2.5-1.2l2.6-1.1c1.7-.7 3.5-1.3 5.3-1.9 3.6-1.1 7.2-2 10.9-2.4 7.4-1 14.9-.7 22.3.5 14.8 2.3 28.7 7.8 42.6 13 13.9 5.4 28.2 9.3 42.5 13.4 14.3 4 28.7 7.6 43.4 10.2 7.3 1.3 14.7 2.4 22.1 3.1 7.4.7 14.8 1.2 22.2 1.7 14.8.9 29.7 1.3 44.6 1.4 29.7.2 59.5-.9 89.2-2.2-29.7 1.3-59.4 2.5-89.2 2.4-14.9-.1-29.7-.4-44.6-1.2-7.4-.4-14.8-.9-22.2-1.6-7.4-.7-14.8-1.8-22.1-3.1-14.7-2.6-29.1-6.2-43.4-10.2-14.3-4.1-28.7-8-42.5-13.4-13.9-5.2-27.9-10.6-42.5-12.9-7.3-1.1-14.8-1.4-22.1-.4-7.3.9-14.5 3.2-21.1 6.5-13.4 6.5-25 15.9-37.6 23.8-3.1 2-6.4 3.8-9.7 5.6-3.3 1.7-6.7 3.3-10.1 4.7-6.8 2.9-13.9 5.5-21.1 7.4-28.7 8-59.5 8.6-88.4 1-14.4-3.8-28.3-9.7-40.8-17.8-6.3-4.1-12.1-8.7-17.6-13.8-5.4-5.1-10.4-10.8-14.7-16.8-4.4-6.1-8-12.6-11.3-19.3-3.3-6.7-6.4-13.5-9.2-20.4-5.7-13.8-10.6-27.8-15.8-41.8-2.6-7-5.3-13.9-8.2-20.7-2.9-6.8-6.1-13.6-10.2-19.7-1-1.5-2.1-3-3.3-4.5l-1.8-2.1c-.6-.7-1.3-1.3-1.9-2-1.2-1.4-2.7-2.5-4.1-3.7-.7-.5-1.5-1.1-2.3-1.6-.4-.3-.7-.5-1.1-.8l-1.2-.7c-3.2-1.9-6.6-3.2-10.2-4.1-3.6-.9-7.3-1.2-10.9-1.2-7.4.1-14.7 1.8-21.6 4.5-3.5 1.3-6.7 3.1-10.1 4.6-1.6.9-3.2 1.8-4.8 2.8l-2.4 1.4-2.3 1.6c-1.5 1-3.1 2.1-4.6 3.1l-4.4 3.4c-1.5 1.1-2.9 2.4-4.3 3.6l-2.1 1.8c-.7.6-1.4 1.2-2 1.9l-4 3.9c-1.3 1.3-2.6 2.7-3.9 4-2.6 2.7-5 5.5-7.4 8.3-9.6 11.4-18.2 23.5-26.9 35.6-4.3 6-8.7 12.1-13.2 18l-6.8 8.8-7.1 8.6c-19.1 22.8-40.1 44-62.6 63.5-2.8 2.5-5.7 4.8-8.5 7.2-2.9 2.4-5.7 4.8-8.7 7.1l-8.8 6.9-9 6.7c-12 8.8-24.3 17.2-37 24.9l-4.7 2.9-4.8 2.8c-3.2 1.9-6.4 3.8-9.7 5.6l-9.8 5.3c-1.6.9-3.3 1.7-5 2.6l-5 2.5-5 2.5-5.1 2.4c-3.4 1.6-6.7 3.2-10.1 4.7l-10.3 4.4-2.6 1.1-2.6 1-5.2 2-5.2 2c-1.7.7-3.5 1.2-5.3 1.8-3.5 1.2-7 2.5-10.6 3.6l-10.7 3.2c-.9.3-1.8.5-2.7.8l-2.7.7-5.4 1.4c-14.4 3.7-29 6.7-43.8 8.4-1.8.2-3.7.5-5.5.7l-5.6.5c-3.7.3-7.4.7-11.1.8-3.7.1-7.4.3-11.1.4l-11.2-.1c-14.9-.6-29.7-2.2-44.3-5Z" fill="#287EF8"/><path d="m0 288.7 10.8 1.6 2.7.4c.9.1 1.8.3 2.7.3l5.4.5 5.4.5 2.7.2c.9.1 1.8.1 2.7.1l10.9.3c1.8.1 3.6 0 5.5 0l5.5-.1 5.5-.1c1.8 0 3.6-.2 5.4-.3l10.9-.8 10.8-1.3c1.8-.2 3.6-.4 5.4-.7l5.4-.9c3.6-.6 7.2-1.1 10.7-1.8 7.1-1.5 14.3-2.9 21.3-4.8l5.3-1.3 2.6-.7c.9-.2 1.7-.5 2.6-.8l10.5-3.1 2.6-.8 2.6-.9 5.2-1.7c3.4-1.2 6.9-2.2 10.3-3.6l10.2-3.8c1.7-.6 3.4-1.3 5.1-2l5-2.1c6.8-2.7 13.4-5.7 20-8.6 13.2-6.1 26.2-12.6 38.9-19.6 25.5-14 49.8-30.1 72.8-47.9 11.5-8.9 22.6-18.3 33.4-28.1 10.7-9.8 21.1-20 30.9-30.7 4.9-5.3 9.8-10.8 14.5-16.3 4.7-5.5 9.2-11.2 13.7-16.9 9-11.4 17.9-22.9 27.7-33.8 1.2-1.4 2.5-2.7 3.7-4 1.2-1.3 2.5-2.7 3.8-3.9l3.9-3.8 4-3.7 2-1.8 2.1-1.7c1.4-1.2 2.8-2.3 4.2-3.5 2.9-2.1 5.8-4.4 8.9-6.3l2.3-1.5c.8-.5 1.5-1 2.3-1.4l4.8-2.7c.4-.2.8-.5 1.2-.7l1.2-.6 2.5-1.2c1.7-.8 3.3-1.6 5-2.2 6.8-2.8 13.9-4.7 21.2-5.2 3.7-.2 7.3-.1 11 .4 3.6.6 7.2 1.6 10.6 3.1 3.3 1.6 6.5 3.4 9.4 5.8.8.5 1.4 1.2 2.1 1.8.7.6 1.4 1.2 2 1.9 1.3 1.3 2.5 2.7 3.7 4.1 4.7 5.6 8.4 12 11.7 18.5 3.3 6.5 6.4 13.1 9.3 19.8 5.9 13.3 11.5 26.8 17.8 39.8 3.2 6.5 6.6 13 10.3 19.2 3.7 6.3 7.8 12.2 12.6 17.7 2.4 2.8 4.9 5.3 7.5 7.8 2.7 2.4 5.4 4.8 8.3 7 5.7 4.4 11.8 8.4 18.3 11.7 6.4 3.4 13.1 6.2 20 8.6 6.9 2.3 13.9 4.2 21 5.6 14.2 2.8 28.8 3.7 43.3 2.9 14.5-.8 28.9-3.2 42.8-7.3 7-2.1 13.8-4.5 20.5-7.4 3.3-1.4 6.6-3 9.9-4.6 1.6-.8 3.2-1.7 4.8-2.6 1.6-.9 3.1-1.8 4.7-2.8 6.2-3.7 12.3-7.7 18.6-11.5 6.2-3.8 12.7-7.2 19.5-9.8 6.8-2.6 14.1-4.2 21.4-4.4 7.3-.3 14.6.6 21.7 2.2 14.3 3.2 27.7 9 41.2 14.3 6.8 2.7 13.6 5.2 20.5 7.3 6.9 2.2 13.8 4.4 20.8 6.5 13.9 4.2 28 8 42.2 10.8 7.1 1.4 14.3 2.6 21.5 3.4 3.6.4 7.2.7 10.8 1.1 3.6.3 7.2.7 10.9.9 14.5 1.1 29 1.7 43.6 2 29.1.6 58.2-.4 87.2-1.9-29 1.6-58.1 2.6-87.2 2.2-14.5-.2-29.1-.8-43.6-1.9-3.6-.3-7.3-.6-10.9-.9-3.6-.4-7.2-.7-10.9-1.1-7.2-.8-14.4-2-21.6-3.3-14.3-2.8-28.4-6.6-42.3-10.7-7-2.1-13.9-4.3-20.8-6.5s-13.8-4.7-20.6-7.3c-13.5-5.3-27-11.1-41.1-14.3-7.1-1.6-14.3-2.5-21.6-2.2-7.2.2-14.4 1.9-21.2 4.4-6.8 2.6-13.2 6-19.4 9.8-6.2 3.7-12.3 7.8-18.5 11.5-1.6.9-3.1 1.8-4.7 2.8-1.6.9-3.2 1.8-4.8 2.6-3.3 1.7-6.5 3.2-9.9 4.6-6.7 2.9-13.6 5.4-20.6 7.4-14 4.1-28.4 6.6-43 7.4-14.6.8-29.2-.1-43.5-2.9-7.2-1.4-14.2-3.2-21.1-5.6-6.9-2.4-13.6-5.2-20.1-8.6-6.5-3.4-12.6-7.3-18.4-11.8-2.9-2.2-5.6-4.6-8.3-7.1-2.6-2.5-5.2-5.1-7.6-7.9-4.8-5.5-9-11.5-12.7-17.8-3.7-6.3-7.1-12.7-10.3-19.3-6.4-13.1-12-26.6-17.9-39.8-3-6.6-6-13.2-9.3-19.7-3.3-6.5-7-12.7-11.6-18.3-1.2-1.4-2.3-2.7-3.6-4-.6-.7-1.3-1.2-2-1.9-.7-.6-1.3-1.3-2-1.8-2.8-2.3-5.9-4.1-9.2-5.6-3.3-1.4-6.8-2.4-10.3-3-3.6-.5-7.2-.6-10.8-.4-7.2.5-14.3 2.4-21 5.1-1.7.6-3.3 1.5-5 2.2l-2.5 1.2-1.2.6c-.4.2-.8.4-1.2.7l-4.7 2.7c-.8.4-1.6.9-2.3 1.4l-2.3 1.5c-3.1 1.9-5.9 4.2-8.9 6.3-1.4 1.1-2.8 2.3-4.2 3.4l-2.1 1.7-2 1.8-4 3.7-3.9 3.8c-1.3 1.3-2.5 2.6-3.8 3.9-1.2 1.3-2.5 2.6-3.7 4-9.8 10.8-18.7 22.3-27.7 33.7-4.5 5.7-9.1 11.4-13.8 16.9-4.7 5.6-9.5 11-14.5 16.3-9.9 10.7-20.3 20.9-31 30.7s-21.9 19.2-33.4 28.1c-23 17.8-47.5 33.8-73 47.8-12.8 7-25.8 13.5-39 19.6-6.7 2.9-13.3 6-20 8.6l-5.1 2.1c-1.7.7-3.4 1.4-5.1 2l-10.2 3.8c-3.4 1.3-6.9 2.4-10.3 3.5l-5.2 1.7-2.6.9-2.6.8-10.5 3.1c-.9.2-1.7.5-2.6.8l-2.6.7-5.3 1.3c-7 1.9-14.2 3.2-21.3 4.7-3.6.7-7.2 1.2-10.8 1.8l-5.4.9c-1.8.3-3.6.4-5.4.7l-10.8 1.3-10.9.8c-1.8.1-3.6.3-5.4.3l-5.5.1-5.5.1c-1.8 0-3.6.1-5.5 0l-10.9-.4c-.9 0-1.8 0-2.7-.1l-2.7-.2-5.4-.5-5.4-.5-2.7-.3-2.7-.4L0 288.7Z" fill="#287EF8"/><path d="m.1 285.5 10.6 1.3c1.8.2 3.5.5 5.3.6l5.3.4 5.3.4c1.8.1 3.6.3 5.3.3l10.7.2c14.2-.2 28.5-.9 42.6-3l5.3-.7c1.8-.2 3.5-.6 5.3-.9l10.5-1.8 10.5-2.2 5.2-1.1 5.2-1.3 10.4-2.6 10.3-2.9 5.1-1.5 5.1-1.6 10.2-3.3c26.9-9.2 53.2-20.3 78.8-32.8 25.6-12.5 50.3-26.8 73.8-42.9 11.8-8 23.1-16.6 34.2-25.6 11-9 21.7-18.5 31.9-28.4 5.1-5 10.1-10 15-15.2 4.9-5.2 9.6-10.5 14.3-15.8 9.4-10.7 18.6-21.6 28.6-31.8 1.2-1.3 2.5-2.5 3.8-3.8 1.3-1.2 2.5-2.5 3.8-3.7 2.6-2.4 5.2-4.9 8-7.1 2.7-2.4 5.5-4.5 8.4-6.7 1.4-1.1 2.9-2.1 4.4-3.1 1.5-1 2.9-2.1 4.5-3l4.6-2.8c1.5-.9 3.1-1.7 4.7-2.6l2.4-1.3c.8-.4 1.6-.8 2.4-1.1l4.9-2.2c3.3-1.3 6.7-2.6 10.1-3.5l1.3-.4 1.3-.3c.9-.2 1.7-.4 2.6-.6 1.8-.3 3.5-.7 5.3-.8 1.8-.3 3.6-.3 5.4-.4h4l1.3.1c3.6.2 7.1 1 10.6 2.1 3.4 1 6.7 2.7 9.7 4.6l2.2 1.5c.7.5 1.4 1.1 2.1 1.7 1.4 1.1 2.7 2.4 4 3.6 5.1 5 9.4 10.8 13.2 16.9 3.8 6.1 7.2 12.3 10.6 18.6 6.7 12.6 13 25.4 20.2 37.7 3.6 6.1 7.4 12.2 11.5 18 2 2.9 4.3 5.7 6.6 8.4 2.4 2.6 4.8 5.2 7.4 7.6 2.6 2.4 5.3 4.7 8.1 6.9 2.8 2.1 5.7 4.2 8.8 6 6 3.8 12.3 7 18.9 9.8 13.1 5.5 27 9 41.1 10.8 14.1 1.9 28.4 2 42.5.8 14.2-1.3 28.2-4 41.8-8.1 6.8-2.1 13.5-4.5 20.1-7.2 6.6-2.7 12.9-6 19.1-9.5 6.2-3.5 12.3-7.1 18.7-10.4 3.2-1.7 6.4-3.2 9.7-4.6 1.7-.6 3.3-1.3 5-1.9 1.7-.5 3.4-1.2 5.1-1.6 6.9-1.9 14.1-2.8 21.2-2.4 3.6.2 7.1.6 10.6 1.3 1.8.3 3.5.7 5.2 1.1 1.7.4 3.5.9 5.2 1.4 13.7 3.9 26.7 10 39.9 15.4 3.3 1.4 6.6 2.7 9.9 3.9 3.3 1.2 6.7 2.4 10.1 3.6 6.7 2.4 13.5 4.7 20.2 6.9 13.5 4.4 27.2 8.3 41.2 11.3 7 1.5 14 2.7 21 3.7 7.1.9 14.1 1.7 21.2 2.4 14.2 1.3 28.4 2.2 42.6 2.7 28.5.9 57 .2 85.4-1.7-28.4 1.9-56.9 2.7-85.4 1.9-14.2-.4-28.5-1.2-42.7-2.5-7.1-.6-14.2-1.4-21.2-2.3-7.1-.9-14.1-2.1-21.1-3.6-13.9-3-27.7-6.9-41.2-11.3-6.8-2.2-13.5-4.5-20.2-6.8-3.4-1.2-6.7-2.3-10.1-3.6-3.3-1.2-6.7-2.6-9.9-3.9-13.2-5.4-26.1-11.4-39.8-15.3-1.7-.5-3.4-.9-5.2-1.3-1.7-.4-3.5-.8-5.2-1.1-3.5-.7-7-1.1-10.6-1.3-7.1-.4-14.2.5-21 2.4-1.7.4-3.4 1.1-5.1 1.6-1.7.6-3.3 1.3-5 1.9-3.3 1.4-6.5 2.9-9.6 4.6-6.3 3.3-12.4 6.9-18.6 10.4-6.2 3.5-12.5 6.8-19.1 9.6-6.6 2.8-13.3 5.2-20.1 7.3-13.7 4.2-27.7 6.9-42 8.2-14.2 1.2-28.6 1.1-42.7-.8-14.2-1.8-28.1-5.3-41.3-10.8-6.6-2.7-13-6-19-9.8-3-1.9-6-4-8.8-6.1-2.8-2.2-5.6-4.5-8.2-6.9-2.6-2.4-5.1-5-7.5-7.7-2.3-2.7-4.6-5.5-6.6-8.4-4.2-5.8-8-11.9-11.6-18-7.2-12.3-13.5-25.1-20.2-37.7-3.4-6.3-6.8-12.5-10.5-18.6-3.8-6-8-11.8-13-16.7-1.3-1.2-2.5-2.5-3.9-3.5-.7-.5-1.4-1.1-2.1-1.6l-2.2-1.5c-3-1.9-6.1-3.5-9.5-4.5-3.3-1.1-6.8-1.8-10.3-2l-1.3-.1h-1.3c-.9 0-1.8-.1-2.6 0-1.8.1-3.5.1-5.3.4-1.8.2-3.5.5-5.2.8l-2.6.6-1.3.3-1.3.4c-3.4.9-6.7 2.2-10 3.5l-4.8 2.2c-.8.4-1.6.7-2.4 1.1l-2.3 1.3c-1.6.9-3.1 1.7-4.7 2.5l-4.5 2.8c-1.5.9-3 1.9-4.4 3-1.4 1-2.9 2-4.3 3.1-2.8 2.2-5.6 4.3-8.3 6.7-2.7 2.3-5.3 4.7-8 7.1-1.3 1.2-2.6 2.5-3.8 3.7-1.3 1.2-2.5 2.5-3.8 3.8-10 10.2-19.2 21-28.6 31.8-4.7 5.3-9.4 10.7-14.4 15.8-4.9 5.2-9.9 10.2-15.1 15.2-10.3 9.9-20.9 19.4-32 28.4-11.1 9-22.4 17.6-34.2 25.6-23.5 16.1-48.3 30.4-73.9 42.9-25.6 12.5-51.9 23.6-78.9 32.7l-10.2 3.2-5.1 1.6-5.1 1.5-10.3 2.9-10.4 2.6-5.2 1.3-5.2 1.1-10.5 2.2-10.5 1.8c-1.8.3-3.5.6-5.3.9l-5.3.7c-14.1 2-28.4 2.7-42.6 2.9l-10.7-.2c-1.8 0-3.6-.2-5.3-.3L22 289l-5.3-.4c-1.8-.1-3.5-.4-5.3-.6L.1 285.5Z" fill="#287EF8"/><path d="m.1 282.2 10.4 1.1c1.7.2 3.5.4 5.2.5l5.2.3 5.2.3 2.6.1 1.3.1h11.8c3.5.1 7-.2 10.5-.4l5.2-.3 2.6-.1c.9-.1 1.7-.2 2.6-.2l10.4-1 2.6-.3 2.6-.4 5.2-.7c27.7-3.7 54.8-10.7 81.5-19 13.3-4.3 26.5-8.8 39.5-13.8 6.5-2.4 13-5.1 19.5-7.6 3.2-1.3 6.5-2.7 9.7-4 3.2-1.3 6.5-2.7 9.7-4.1 25.6-11 50.7-23.5 74.6-37.9 23.9-14.4 46.6-30.8 67.7-49.1 10.6-9.1 20.7-18.7 30.4-28.7s19.3-20.2 29.5-29.8c10.1-9.6 21-18.6 32.9-26 3-1.7 6-3.6 9.1-5.2 1.6-.8 3.1-1.6 4.7-2.4l4.8-2.1c6.4-2.8 13.2-4.9 20.1-6.1 6.9-1.1 14.1-1.2 21 .4 6.9 1.5 13.4 4.7 18.8 9.2 5.5 4.4 10.3 9.5 14.6 15.1 4.3 5.6 8.1 11.4 11.9 17.3 7.6 11.7 14.7 23.8 22.7 35.2 4 5.7 8.2 11.3 12.8 16.5 2.4 2.5 4.6 5.2 7.3 7.4 1.3 1.2 2.5 2.4 3.9 3.5l4.1 3.2c.7.5 1.4 1.1 2.1 1.6l2.2 1.4 4.4 2.9 4.5 2.6c1.5.9 3 1.7 4.6 2.4l4.7 2.2 1.2.6 1.2.5 2.4 1c1.6.6 3.2 1.3 4.9 1.9l5 1.7 2.5.8 2.5.7 5 1.4c1.7.5 3.4.8 5.1 1.2 1.7.4 3.4.8 5.1 1.1l5.2.8c1.7.3 3.4.6 5.2.8 3.5.4 6.9.9 10.4 1 27.8 2 56-1.4 82.6-9.5 6.7-2 13.3-4.4 19.7-7 6.4-2.6 12.7-5.8 18.9-9 6.2-3.2 12.4-6.4 18.8-9.2 6.4-2.8 13.1-5.1 20-6.4 3.5-.6 7-1 10.5-1.1 3.5-.1 7 .1 10.5.6 7 .9 13.7 2.8 20.4 5 13.3 4.5 25.8 10.8 38.6 16.3 6.4 2.8 12.9 5.3 19.5 7.7 6.5 2.5 13.1 4.9 19.7 7.2 13.2 4.6 26.5 8.7 40.1 11.9 13.6 3.3 27.4 5.1 41.3 6.7 13.9 1.6 27.8 2.7 41.7 3.3 27.9 1.2 55.9.7 83.7-1.5-27.8 2.2-55.8 2.8-83.7 1.7-14-.6-27.9-1.6-41.8-3.2-13.9-1.6-27.8-3.4-41.4-6.6-13.6-3.2-27-7.3-40.2-11.9-6.6-2.3-13.2-4.7-19.7-7.1-6.5-2.5-13.1-4.9-19.5-7.7-12.8-5.5-25.4-11.7-38.6-16.2-6.6-2.2-13.4-4-20.3-5-3.4-.4-6.9-.7-10.4-.6-3.5.1-6.9.5-10.4 1.1-6.8 1.2-13.4 3.6-19.8 6.3-6.4 2.8-12.6 6-18.8 9.2-6.2 3.2-12.5 6.4-18.9 9-6.5 2.6-13.1 5-19.8 7-26.8 8.2-55 11.6-82.9 9.6-3.5-.2-7-.7-10.4-1-1.7-.2-3.5-.5-5.2-.8l-5.2-.8c-1.7-.3-3.4-.7-5.1-1.1-1.7-.4-3.4-.7-5.1-1.2l-5.1-1.4-2.5-.7-2.5-.8-5-1.7c-1.7-.6-3.3-1.3-4.9-1.9l-2.4-1-1.2-.5-1.2-.6-4.7-2.3c-1.6-.7-3.1-1.6-4.6-2.5l-4.6-2.6-4.4-2.9-2.2-1.4c-.7-.5-1.4-1.1-2.1-1.6l-4.2-3.2c-1.4-1.1-2.6-2.3-3.9-3.5-2.7-2.3-5-4.9-7.4-7.5-4.6-5.2-8.9-10.8-12.9-16.6-8-11.5-15.2-23.5-22.7-35.2-3.8-5.8-7.6-11.7-11.9-17.2-4.3-5.5-9-10.6-14.5-14.9-5.4-4.4-11.7-7.5-18.4-9-6.8-1.5-13.8-1.5-20.6-.4-6.8 1.1-13.5 3.2-19.9 6l-4.8 2.1c-1.6.7-3.1 1.6-4.7 2.4-3.1 1.5-6.1 3.4-9.1 5.1-11.8 7.4-22.6 16.3-32.7 25.9-10.2 9.6-19.7 19.8-29.5 29.8-9.7 10-19.9 19.6-30.5 28.7-21.2 18.2-43.9 34.7-67.9 49.1-24 14.4-49.1 26.8-74.8 37.8-3.2 1.4-6.4 2.7-9.7 4.1-3.2 1.3-6.4 2.7-9.7 4-6.5 2.6-13 5.2-19.5 7.6-13 5-26.3 9.5-39.6 13.8-26.7 8.3-53.9 15.1-81.6 18.8l-5.2.7-2.6.4-2.6.2-10.4 1c-.9.1-1.7.2-2.6.2l-2.6.1-5.2.3c-3.5.1-7 .4-10.5.3H29.9l-1.3-.1-2.6-.1-5.2-.3-5.2-.3c-1.7-.1-3.5-.4-5.2-.5l-10.3-1Z" fill="#287EF8"/><path d="M.1 278.9c27.3 2.8 54.9 1.9 82-2.2 13.6-1.8 27-4.7 40.4-7.7 6.7-1.6 13.3-3.2 19.9-5l9.9-2.7 9.9-2.9c3.3-.9 6.6-2 9.8-3l9.8-3.1c6.5-2.2 13-4.3 19.5-6.5 13-4.4 25.8-9.2 38.7-13.9 25.7-9.6 51-20.2 75.3-32.9 24.3-12.6 47.5-27.4 69.3-44 10.9-8.3 21.4-17.1 31.5-26.4 10.1-9.2 20-18.8 30.4-27.8 5.2-4.5 10.5-8.8 16-13 2.8-2 5.5-4.1 8.4-6 2.8-2 5.8-3.7 8.7-5.6 5.9-3.5 12-6.7 18.4-9.4 3.1-1.4 6.4-2.7 9.6-3.7 1.6-.6 3.3-1 5-1.5 1.7-.4 3.3-.8 5-1.1 6.8-1.3 13.8-1.7 20.6-.8 3.4.5 6.8 1.3 10.1 2.5 3.2 1.2 6.3 2.8 9.3 4.6 5.8 3.8 11.1 8.2 15.9 13.1 2.4 2.5 4.7 5.1 6.9 7.7 2.2 2.6 4.4 5.3 6.5 8 8.5 10.8 16.5 21.9 25.4 32.3 1.1 1.3 2.2 2.6 3.4 3.9 1.1 1.3 2.3 2.5 3.5 3.8 2.3 2.5 4.8 4.9 7.3 7.2l1.9 1.7c.3.3.6.6 1 .9l1 .8 4.1 3.1 1 .8 1.1.7 2.1 1.4 2.1 1.4 1.1.7 1.1.6c3 1.6 5.9 3.4 9.1 4.8 1.6.7 3.1 1.5 4.6 2.2l4.8 1.9 2.4.9 2.4.8 4.9 1.6c1.6.5 3.3.9 4.9 1.4 1.7.4 3.3 1 5 1.3 13.3 3.1 27 4.7 40.7 5.1 1.7.1 3.4.1 5.1.1h5.1c3.4-.1 6.8-.3 10.3-.4 3.4-.3 6.8-.5 10.2-.9l10.2-1.3c6.8-.8 13.5-2.1 20.2-3.5 6.7-1.5 13.3-3.2 19.9-5.1 6.6-2 13.1-4.1 19.4-6.6 6.4-2.5 12.6-5.4 18.8-8.3 6.2-2.9 12.5-5.7 19-8s13.2-4 20.1-4.6c6.9-.7 13.8-.2 20.5 1.2 6.7 1.4 13.3 3.6 19.7 6.1 12.8 5 25 11.4 37.4 17.1 6.2 2.8 12.6 5.4 18.9 8 6.4 2.6 12.7 5.1 19.2 7.5 12.8 4.8 25.9 9.1 39.2 12.5 6.6 1.7 13.3 3.2 20.1 4.3l5.1.9 5.1.8 10.2 1.5c13.6 1.8 27.2 3.1 40.9 3.9 27.4 1.5 54.9 1.1 82.2-1.3-27.3 2.5-54.8 3-82.2 1.5-13.7-.7-27.4-2-41-3.7-3.4-.5-6.8-.9-10.2-1.4l-5.1-.8-5.1-.9c-6.8-1.1-13.5-2.6-20.1-4.2-13.3-3.4-26.4-7.7-39.2-12.4-6.4-2.4-12.8-4.9-19.2-7.5-6.3-2.6-12.7-5.1-19-8-12.5-5.7-24.7-12.1-37.4-17-6.4-2.5-12.9-4.6-19.6-6-6.7-1.4-13.6-1.9-20.4-1.2-6.8.7-13.5 2.3-19.9 4.6-6.4 2.3-12.7 5.1-18.9 8-6.2 2.9-12.4 5.8-18.8 8.3-6.4 2.5-12.9 4.7-19.5 6.7s-13.2 3.7-19.9 5.2c-6.7 1.4-13.5 2.7-20.3 3.6l-10.2 1.3c-3.4.4-6.8.6-10.3.9-3.4.1-6.9.3-10.3.4h-5.2c-1.7 0-3.4 0-5.2-.1-13.7-.4-27.4-1.9-40.8-5-1.7-.3-3.3-.9-5-1.3-1.7-.5-3.3-.9-5-1.4l-4.9-1.6-2.4-.8-2.4-.9-4.8-1.9c-1.6-.7-3.1-1.4-4.7-2.2-3.2-1.4-6.1-3.1-9.1-4.8l-1.1-.6-1.1-.7-2.2-1.4-2.2-1.4-1.1-.7-1-.8-4.1-3.1-1-.8c-.3-.3-.6-.6-1-.9l-1.9-1.7c-2.6-2.3-5-4.7-7.4-7.2-1.2-1.2-2.4-2.5-3.5-3.8-1.2-1.3-2.3-2.6-3.4-3.9-9-10.4-17-21.6-25.5-32.3-2.1-2.7-4.3-5.3-6.5-8-2.2-2.6-4.4-5.2-6.8-7.6-4.8-4.9-10.1-9.3-15.8-13-2.9-1.8-5.9-3.4-9.1-4.6-3.2-1.1-6.5-2-9.9-2.4-6.7-.9-13.6-.6-20.3.7-1.7.3-3.3.7-5 1.1-1.6.5-3.3.9-4.9 1.4-3.3 1-6.4 2.3-9.6 3.6-6.3 2.6-12.4 5.9-18.3 9.3-2.9 1.8-5.8 3.6-8.6 5.5-2.9 1.9-5.6 3.9-8.4 5.9-5.4 4.1-10.8 8.4-15.9 13-10.4 9-20.2 18.5-30.4 27.7-10.1 9.3-20.7 18.1-31.6 26.4-21.8 16.6-45.1 31.4-69.5 44-24.4 12.6-49.7 23.3-75.4 32.8-12.9 4.7-25.7 9.5-38.7 13.9-6.5 2.3-13 4.4-19.5 6.5l-9.8 3.1c-3.3 1-6.5 2.1-9.8 3l-9.9 2.9-9.9 2.7c-6.6 1.8-13.3 3.4-20 5-13.4 3-26.8 5.7-40.4 7.5-27 3.6-54.6 4.5-81.9 1.6Z" fill="#287EF8"/><path d="m.1 275.6 10.1.6c1.7.1 3.4.2 5 .3l5.1.1c3.4 0 6.7.1 10.1.1l10.1-.4c1.7-.1 3.4-.1 5.1-.2l5-.4c3.4-.3 6.7-.5 10.1-.8l10-1.2c1.7-.2 3.4-.4 5-.6l5-.8c3.3-.5 6.7-1 10-1.6l9.9-1.9c1.7-.3 3.3-.6 5-.9l4.9-1.1 9.9-2.1c13.1-3.1 26.2-6.4 39.2-10.1 26-7.3 51.6-15.6 77.3-23.8 25.7-8.2 51.2-17 75.9-27.9 24.7-10.8 48.4-23.9 70.8-38.9 11.2-7.5 22.1-15.5 32.6-24s20.7-17.3 31.3-25.7c5.3-4.2 10.7-8.2 16.2-12.2l4.2-2.8 2.1-1.4 2.1-1.4 4.3-2.7 4.4-2.5c.7-.4 1.5-.9 2.2-1.3l2.2-1.2 4.5-2.4 4.6-2.2c.8-.4 1.5-.7 2.3-1.1l2.3-1c6.2-2.7 12.6-4.9 19.3-6.4 6.6-1.4 13.4-2.1 20.2-1.6l1.3.1 1.3.2c.8.1 1.7.2 2.5.3 1.7.3 3.4.6 5 1.1 1.7.4 3.3 1 4.9 1.5 1.6.7 3.2 1.3 4.7 2.1 6 3.1 11.7 6.8 17.1 11 2.7 2.1 5.2 4.4 7.6 6.7 2.5 2.3 4.9 4.7 7.2 7.1 9.5 9.6 18.5 19.7 28.3 28.9 4.9 4.6 10 9 15.5 12.9 5.5 3.8 11.4 7.2 17.5 9.9 12.2 5.6 25.4 9 38.6 11.2 13.3 2.1 26.8 3 40.2 2.7 26.9-.5 53.8-4.8 79.7-12.2 6.5-1.9 12.9-3.9 19.2-6.2 6.3-2.3 12.5-4.9 18.8-7.4 6.3-2.5 12.6-4.9 19.1-6.7 3.3-.9 6.6-1.6 9.9-2.2 1.7-.2 3.4-.5 5-.6l2.5-.2 1.3-.1h1.3c6.8-.2 13.6.9 20.1 2.7 6.5 1.8 12.9 4.2 19.1 6.9 12.4 5.4 24.2 12 36.4 17.8 6.1 2.9 12.3 5.6 18.5 8.3 6.2 2.7 12.4 5.3 18.7 7.8 12.5 5 25.2 9.5 38.2 13.1 6.5 1.8 13.1 3.4 19.7 4.6 6.6 1.3 13.3 2.5 19.9 3.5 13.3 2.1 26.7 3.5 40.2 4.4 26.9 1.8 54 1.6 80.8-1.1-26.8 2.8-53.9 3.1-80.8 1.4-13.5-.9-26.9-2.3-40.2-4.3-6.7-1-13.3-2.1-19.9-3.4-6.6-1.2-13.2-2.8-19.7-4.6-13-3.6-25.8-8.1-38.3-13.1-6.3-2.5-12.5-5.1-18.7-7.8-6.2-2.7-12.4-5.4-18.5-8.3-12.2-5.8-24-12.3-36.4-17.7-6.2-2.7-12.5-5.1-19-6.8-6.5-1.8-13.2-2.8-19.9-2.7h-1.3l-1.3.1-2.5.2c-1.7.1-3.3.4-5 .6-3.3.6-6.6 1.2-9.8 2.2-6.5 1.8-12.8 4.1-19.1 6.6-6.3 2.5-12.5 5.1-18.8 7.5-6.3 2.3-12.8 4.4-19.3 6.2-26 7.4-52.8 11.8-79.9 12.3-13.5.3-27-.6-40.4-2.7-13.3-2.2-26.5-5.6-38.9-11.2-6.2-2.7-12.1-6.1-17.7-9.9-5.6-3.9-10.7-8.3-15.6-13-9.9-9.2-18.9-19.3-28.3-28.9-2.4-2.4-4.8-4.8-7.2-7.1-2.4-2.3-4.9-4.6-7.6-6.6-5.3-4.1-10.9-7.8-16.9-10.9-1.5-.8-3-1.4-4.6-2-1.6-.5-3.1-1.1-4.8-1.5-1.6-.5-3.3-.7-4.9-1.1-.8-.1-1.7-.2-2.5-.3l-1.2-.2-1.3-.1c-6.7-.5-13.4.2-20 1.6-6.5 1.5-12.9 3.6-19.1 6.3l-2.3 1c-.8.3-1.5.7-2.3 1.1l-4.6 2.2-4.5 2.3-2.2 1.2c-.7.4-1.5.8-2.2 1.3l-4.4 2.5-4.3 2.7-2.1 1.3-2.1 1.4-4.2 2.8c-5.5 3.9-10.9 7.9-16.2 12.1-10.6 8.4-20.8 17.2-31.3 25.7s-21.4 16.5-32.6 24c-22.4 15-46.2 28.1-70.9 38.9-24.7 10.8-50.3 19.7-76 27.8-25.7 8.2-51.4 16.5-77.4 23.7-13 3.7-26.1 6.9-39.2 10l-9.9 2.1-4.9 1.1c-1.7.3-3.3.6-5 .9l-10 1.8c-3.3.5-6.7 1-10 1.5l-5 .8c-1.7.3-3.3.4-5 .6L60.4 275c-3.4.3-6.7.5-10.1.8l-5 .4c-1.7.1-3.4.1-5.1.2l-10.1.3c-3.4 0-6.7-.1-10.1-.1l-5.1-.1c-1.7-.1-3.4-.2-5-.3l-9.8-.6Z" fill="#287EF8"/><path d="m.2 272.3 10 .4 5 .2h5l10-.1 10-.5 5-.3 5-.5 9.9-1 9.9-1.3 4.9-.7 4.9-.8 9.8-1.6 9.8-1.9 4.9-.9c1.6-.3 3.2-.7 4.9-1l9.7-2.1c13-3 25.9-6.2 38.7-9.7 25.7-6.8 51.2-14.3 76.9-21.2 25.7-6.8 51.4-13.9 76.4-23 12.5-4.5 24.8-9.6 36.8-15.2 12-5.6 23.8-11.8 35.3-18.5 5.7-3.3 11.4-6.8 17-10.4 2.8-1.8 5.6-3.6 8.3-5.5 2.7-1.9 5.5-3.7 8.2-5.7 10.8-7.7 21.4-15.8 32.2-23.6 10.8-7.7 21.9-15.2 33.6-21.5 2.9-1.6 5.9-3.1 8.9-4.6l4.5-2.1c1.5-.7 3-1.4 4.6-2 3.1-1.2 6.2-2.5 9.3-3.6 3.2-1 6.4-2 9.6-2.8 1.6-.4 3.3-.7 4.9-1 1.7-.2 3.3-.6 5-.7 3.3-.4 6.7-.6 10-.6s6.7.4 10 .9c3.3.6 6.5 1.5 9.7 2.6 3.1 1.2 6.1 2.6 9.1 4.1 3 1.5 5.9 3 8.8 4.8 2.9 1.7 5.7 3.6 8.3 5.5 2.7 2 5.3 4 8 6 10.5 8.3 20.4 17.1 31.1 24.9 2.7 1.9 5.4 3.9 8.2 5.7.7.4 1.4.9 2.1 1.4l2.1 1.3c1.4.8 2.8 1.7 4.3 2.5l4.4 2.2 1.1.6 1.1.5 2.3 1c3 1.4 6.2 2.4 9.3 3.5 12.6 4.2 25.7 6.5 38.9 7.8 13.2 1.3 26.5 1.3 39.8.6 26.5-1.5 52.9-6 78.5-12.9 6.4-1.7 12.8-3.6 19.1-5.7 6.3-2.1 12.5-4.4 18.8-6.5 6.3-2.1 12.7-4.1 19.2-5.4 6.5-1.3 13.2-1.9 19.9-1.5 6.7.3 13.3 1.8 19.6 4 6.3 2.1 12.5 4.7 18.5 7.6 12 5.7 23.5 12.4 35.4 18.4 23.9 11.6 48.1 22.8 73.6 30.5l4.8 1.4 4.8 1.3c3.2.8 6.5 1.5 9.7 2.3 6.5 1.5 13 2.7 19.6 3.9 13.1 2.3 26.3 3.9 39.5 5 26.5 2.1 53.2 2 79.6-1-26.4 3.1-53.1 3.3-79.7 1.2-13.3-1-26.5-2.7-39.6-4.9-6.6-1.1-13.1-2.4-19.6-3.8-3.2-.7-6.5-1.4-9.7-2.2l-4.8-1.3-4.8-1.4c-12.8-3.8-25.2-8.5-37.5-13.8-12.2-5.2-24.3-10.8-36.2-16.7-11.9-6-23.4-12.7-35.4-18.4-6-2.9-12.1-5.5-18.4-7.6-6.3-2.1-12.8-3.6-19.4-3.9-6.6-.4-13.3.2-19.7 1.5-6.5 1.3-12.9 3.2-19.2 5.4-6.3 2.1-12.5 4.4-18.8 6.6-6.3 2.1-12.7 4-19.1 5.7-25.7 6.9-52.1 11.5-78.7 13-13.3.7-26.6.7-39.9-.6-13.2-1.3-26.5-3.6-39.1-7.8-3.1-1.1-6.3-2.2-9.4-3.5l-2.3-1-1.2-.5-1.1-.6-4.5-2.2c-1.5-.7-2.9-1.7-4.3-2.5l-2.2-1.3c-.7-.4-1.4-.9-2.1-1.4-2.8-1.8-5.5-3.7-8.2-5.7-10.8-7.9-20.8-16.7-31.2-24.9-2.6-2-5.2-4.1-7.9-6-2.7-2-5.4-3.8-8.3-5.5-2.8-1.7-5.8-3.3-8.7-4.7-3-1.5-6-2.9-9-4.1-3.1-1.1-6.3-2-9.5-2.6-3.3-.5-6.5-.9-9.8-.9-3.3 0-6.6.1-9.9.6-1.6.2-3.3.5-4.9.7-1.6.3-3.3.6-4.9 1-3.2.7-6.4 1.7-9.5 2.7-3.1 1.1-6.2 2.3-9.3 3.6-1.6.6-3 1.3-4.6 2-1.5.7-3 1.3-4.5 2.1-3 1.5-6 2.9-8.9 4.5-11.7 6.3-22.8 13.7-33.6 21.4-10.8 7.7-21.4 15.9-32.2 23.6-2.7 1.9-5.5 3.8-8.2 5.7-2.8 1.8-5.6 3.7-8.4 5.5-5.6 3.6-11.3 7-17.1 10.4-11.5 6.7-23.3 12.9-35.4 18.5-12.1 5.6-24.4 10.7-36.9 15.2-25 9-50.7 16.1-76.4 22.9-25.7 6.9-51.2 14.4-76.9 21.1-12.8 3.4-25.8 6.6-38.7 9.5l-9.8 2.1c-1.6.3-3.2.7-4.9 1l-4.9.9-9.8 1.9-9.8 1.6-4.9.8-4.9.6-9.9 1.3-9.9.9-5 .5-5 .3-10 .5-10 .1h-5l-5-.2-9.7-.4Z" fill="#287EF8"/><path d="m.2 269.1 9.9.2 4.9.1 4.9-.1 9.9-.3 9.8-.7 4.9-.3 4.9-.5 9.8-1.1L69 265l4.9-.7c1.6-.3 3.2-.6 4.9-.8 25.9-4.4 51.5-10.4 77-16.9 25.5-6.4 50.9-13.2 76.6-18.8 25.7-5.5 51.5-10.8 76.7-18.1 12.6-3.6 25.1-7.7 37.4-12.5 12.2-4.8 24.3-10.1 36-15.9 11.7-5.9 23.3-12.2 34.4-19.1 11.2-6.9 22-14.3 33.1-21.4 11.1-7.1 22.3-14 34.1-19.9 5.8-3 11.9-5.7 18-8.2 3.1-1.2 6.1-2.4 9.3-3.5 3.1-1.1 6.3-2 9.5-2.8 6.4-1.6 13-2.6 19.6-2.9 6.6-.2 13.3.4 19.7 2.1 3.2.9 6.3 2 9.4 3.1 3.1 1.1 6.2 2.3 9.2 3.6 6.1 2.5 11.8 5.9 17.5 9.2 11.3 6.7 22.3 14 33.8 20.2 2.9 1.6 5.8 3.1 8.7 4.5 1.5.8 3 1.3 4.5 2l2.2 1c.7.3 1.5.6 2.3.9l4.6 1.7 4.7 1.4c1.6.5 3.1.9 4.7 1.3l4.8 1.2c12.8 2.8 25.9 4.2 39 4.7 13.1.4 26.3 0 39.3-1.1 26.2-2.3 52.1-6.9 77.6-13.2 6.4-1.6 12.7-3.2 19-5.1 6.3-1.9 12.6-3.8 18.9-5.6 6.3-1.8 12.8-3.3 19.3-4.1 6.5-.8 13.2-1 19.7-.2 6.6.8 13 2.6 19.1 5 6.1 2.4 12.1 5.2 17.9 8.2 11.7 6 22.9 12.9 34.5 19.1 23.3 12.1 47 23.8 71.9 32 3.1 1 6.3 2 9.4 2.9 3.2.9 6.4 1.7 9.5 2.5 3.2.8 6.4 1.5 9.6 2.2 3.2.7 6.4 1.3 9.6 2 12.9 2.5 25.9 4.4 39 5.6 26.1 2.5 52.6 2.5 78.7-.8-26.1 3.4-52.5 3.4-78.7 1-13.1-1.2-26.1-3-39-5.5-3.2-.7-6.4-1.3-9.7-2-3.2-.7-6.4-1.4-9.6-2.2-3.2-.8-6.4-1.6-9.6-2.5-3.2-.9-6.3-1.8-9.4-2.9-25-8.2-48.7-19.8-72.1-31.9-11.6-6.2-22.8-13-34.5-19.1-5.8-3-11.8-5.8-17.9-8.2-6.1-2.4-12.4-4.2-18.9-5-6.5-.8-13.1-.6-19.6.2-6.5.8-12.9 2.4-19.2 4.1-6.3 1.8-12.6 3.7-18.9 5.6-6.3 1.9-12.7 3.5-19.1 5.1-25.5 6.3-51.5 11-77.7 13.3-13.1 1.1-26.3 1.6-39.4 1.2-13.2-.4-26.3-1.9-39.2-4.7-1.6-.3-3.2-.8-4.8-1.2-1.6-.4-3.2-.8-4.8-1.3l-4.7-1.5-4.6-1.7c-.8-.3-1.6-.6-2.3-.9l-2.3-1c-1.5-.7-3-1.3-4.5-2-3-1.4-5.9-3-8.8-4.5-11.6-6.3-22.5-13.6-33.9-20.2-5.7-3.3-11.3-6.6-17.4-9.1-3-1.3-6.1-2.5-9.1-3.6-3.1-1.1-6.2-2.3-9.3-3.1-6.3-1.7-12.9-2.3-19.4-2.1-6.5.2-13 1.2-19.4 2.8-3.2.8-6.3 1.7-9.4 2.8-3.1 1-6.1 2.3-9.2 3.4-6.1 2.5-12.1 5.2-17.9 8.2-11.7 5.9-22.9 12.8-34 19.8-11.1 7.1-21.9 14.5-33.1 21.4-11.2 6.9-22.8 13.2-34.5 19.1-11.8 5.8-23.8 11.2-36.1 15.9-12.3 4.8-24.8 8.9-37.4 12.5-25.3 7.2-51.1 12.5-76.8 18-25.7 5.6-51.1 12.3-76.6 18.7-25.5 6.4-51.1 12.4-77.1 16.7-1.6.3-3.2.6-4.9.8l-4.9.7-9.8 1.4-9.8 1-4.9.5-4.9.3-9.8.7-9.9.2-4.9.1-4.9-.1-9.8.1Z" fill="#287EF8"/><path d="M.2 265.8H14.9l4.9-.2 9.8-.5 9.7-.9 4.9-.4 4.8-.6 9.7-1.2 9.7-1.5c3.2-.5 6.4-1 9.6-1.6 25.7-4.5 51-10.6 76.3-16.6 12.7-3 25.3-6 38.1-8.9l9.6-2 4.8-1 4.8-.9 9.6-1.9 9.6-1.7c25.7-4.3 51.5-7.8 77-13.2 12.7-2.7 25.4-5.9 37.8-9.8 12.4-3.9 24.7-8.4 36.7-13.4 12-5 23.8-10.5 35.3-16.7 11.5-6.1 22.7-12.8 34-19.3s22.7-12.8 34.5-18.3c5.9-2.8 11.9-5.4 18-7.8 6.1-2.3 12.2-4.6 18.6-6.1 3.2-.8 6.4-1.5 9.6-2.1 3.2-.5 6.5-1 9.7-1.2 3.3-.2 6.5-.3 9.8-.2 3.3.1 6.5.5 9.8 1.1 3.2.6 6.4 1.4 9.5 2.2 3.2.8 6.3 1.6 9.5 2.5 3.1.9 6.3 1.9 9.3 3 3.1 1.2 6.1 2.3 9.1 3.6 12.1 4.9 23.9 10.4 36.1 15 3 1.2 6.1 2.2 9.2 3.3 1.5.5 3.1 1 4.7 1.4l2.3.7 2.4.6c6.3 1.7 12.7 2.7 19.1 3.6 12.9 1.6 25.9 2.1 38.9 1.8 13-.3 26-1.3 38.9-2.7 25.9-3 51.5-7.7 76.9-13.3 6.4-1.4 12.7-2.8 19-4.4 6.3-1.6 12.6-3.2 19-4.6 6.4-1.4 12.8-2.5 19.3-2.9 6.5-.4 13.1-.3 19.5.9 6.5 1.1 12.7 3.2 18.7 5.9 6 2.6 11.8 5.6 17.5 8.7 11.4 6.3 22.4 13.4 33.7 19.8 22.7 12.6 45.9 24.8 70.4 33.6 3.1 1.1 6.2 2.1 9.3 3.1 3.1 1 6.3 1.8 9.4 2.7 3.1.9 6.3 1.6 9.5 2.5l9.5 2.2c12.7 2.7 25.6 4.8 38.5 6.2 25.9 2.8 52.1 3 77.9-.6-25.8 3.7-52.1 3.6-78 .9-13-1.4-25.8-3.4-38.6-6.1l-9.5-2.2c-3.2-.8-6.3-1.6-9.5-2.4-3.1-.9-6.3-1.7-9.4-2.7-3.1-1-6.2-2-9.3-3.1-24.6-8.7-47.8-20.9-70.6-33.5-11.3-6.4-22.3-13.5-33.7-19.8-5.7-3.1-11.5-6.1-17.5-8.7-5.9-2.6-12.1-4.7-18.5-5.8-6.4-1.1-12.9-1.3-19.4-.9-6.5.4-12.9 1.5-19.2 3-6.4 1.4-12.7 3-19 4.6-6.3 1.6-12.7 3.1-19 4.5-25.4 5.6-51.1 10.4-77 13.4-13 1.5-26 2.5-39 2.8-13 .3-26.1-.2-39.1-1.8-6.5-.9-12.9-1.9-19.2-3.6l-2.4-.6-2.3-.7c-1.6-.5-3.1-.9-4.7-1.4-3.1-1-6.2-2.1-9.2-3.3-12.2-4.6-24-10.1-36.1-15-3-1.2-6-2.4-9.1-3.6-3-1.1-6.1-2.1-9.3-3-3.1-.9-6.3-1.7-9.4-2.5-3.2-.8-6.3-1.7-9.5-2.2-3.2-.6-6.4-.9-9.6-1-3.2-.2-6.5-.1-9.7.2-3.2.2-6.4.7-9.7 1.2-3.2.6-6.4 1.2-9.5 2-6.3 1.5-12.4 3.8-18.5 6.1-6 2.4-12 4.9-17.9 7.7-11.8 5.5-23.2 11.8-34.5 18.3s-22.5 13.1-34 19.2-23.4 11.6-35.4 16.6c-12 5-24.3 9.5-36.7 13.4-12.4 3.9-25.1 7.1-37.8 9.8-25.5 5.4-51.3 8.9-77 13.1l-9.6 1.6-9.6 1.9-4.8.9-4.8 1-9.6 2c-12.7 2.8-25.4 5.8-38.1 8.8-25.3 6-50.7 12-76.4 16.4-3.2.6-6.4 1.1-9.6 1.6l-9.7 1.5-9.7 1.2-4.9.6-4.9.4-9.7.8-9.8.4-4.9.2H9.9l-9.7-.1Z" fill="#287EF8"/><path d="m.2 262.5 9.7-.2 4.9-.1 4.8-.3 9.7-.6 9.7-1 4.8-.5 4.8-.7 9.6-1.3c3.2-.5 6.4-1.1 9.6-1.6 3.2-.5 6.4-1.1 9.6-1.7 25.5-4.7 50.6-10.8 75.9-16.5 12.6-2.9 25.3-5.5 38-8.1l9.6-1.7 4.8-.9 4.8-.7 9.6-1.5 9.6-1.2c25.7-2.9 51.6-4.7 77.2-8.4 12.8-1.8 25.6-4.1 38.1-7.1 12.6-3 25-6.6 37.3-10.8 12.2-4.2 24.3-8.9 36.1-14.2 11.8-5.3 23.3-11.3 34.9-17.1 11.6-5.8 23.2-11.6 35.1-16.7 5.9-2.6 12-5 18-7.3 6.1-2.2 12.2-4.4 18.5-6 3.1-.8 6.3-1.5 9.5-2.1 3.2-.6 6.4-1.1 9.6-1.4 6.5-.7 13-.8 19.5-.1 3.3.3 6.4.9 9.6 1.4l9.6 1.4c3.2.5 6.4 1 9.6 1.7 3.2.7 6.3 1.4 9.5 2.2 12.6 3.1 25 6.6 37.7 9.4 3.2.7 6.3 1.4 9.5 2 1.6.3 3.2.6 4.8.8 1.6.3 3.2.5 4.8.7 6.4.9 12.8 1.3 19.3 1.6 25.9.9 51.7-1.6 77.3-5.1 12.8-1.8 25.6-3.9 38.3-6.2l38.2-7.2 9.5-1.8c3.2-.6 6.3-1.3 9.5-1.9 6.3-1.3 12.7-2.6 19.1-3.7 12.7-2.1 26-2.9 38.7-.1 6.4 1.4 12.5 3.7 18.3 6.6 5.9 2.8 11.5 5.9 17.1 9.2 11.2 6.6 21.9 13.8 33 20.5 22.2 13.2 44.9 26 69 35.3 3 1.2 6.1 2.3 9.1 3.3 3.1 1.1 6.2 2 9.2 2.9 3.1 1 6.2 1.8 9.3 2.7 3.1.8 6.3 1.6 9.4 2.4 12.6 3 25.3 5.3 38.2 6.9 25.7 3.1 51.8 3.5 77.4-.4-25.6 4-51.8 3.7-77.4.6-12.9-1.5-25.6-3.8-38.2-6.8-3.1-.8-6.3-1.6-9.4-2.4-3.1-.9-6.3-1.7-9.3-2.6-3.1-1-6.2-1.9-9.3-2.9-3.1-1.1-6.1-2.2-9.1-3.3-24.2-9.3-46.9-22.1-69.2-35.3-11.1-6.7-21.9-13.9-33-20.5-5.6-3.3-11.2-6.4-17.1-9.2-5.8-2.8-11.9-5.1-18.2-6.5-12.6-2.8-25.8-2-38.5.1-6.4 1-12.7 2.4-19 3.7-3.2.7-6.3 1.3-9.5 1.9l-9.5 1.8-38.2 7.2c-12.7 2.3-25.5 4.5-38.3 6.3-25.6 3.6-51.5 6.1-77.5 5.2-6.5-.3-13-.7-19.4-1.6-1.6-.2-3.2-.4-4.8-.7-1.6-.3-3.2-.5-4.8-.8-3.2-.6-6.4-1.3-9.5-2-12.7-2.8-25.1-6.3-37.7-9.4-3.1-.8-6.3-1.5-9.4-2.2-3.1-.7-6.3-1.2-9.5-1.7l-9.6-1.4c-3.2-.5-6.4-1.1-9.6-1.4-6.4-.7-12.9-.5-19.3.1-3.2.3-6.4.8-9.6 1.4-3.2.6-6.3 1.3-9.4 2.1-6.3 1.6-12.4 3.7-18.4 5.9-6 2.3-12.1 4.7-18 7.3-11.9 5.1-23.5 10.9-35 16.7-11.6 5.8-23.1 11.7-34.9 17.1-11.8 5.4-23.9 10-36.2 14.2-12.3 4.2-24.7 7.8-37.3 10.8-12.6 3-25.4 5.3-38.2 7.1-25.7 3.6-51.5 5.4-77.2 8.3l-9.6 1.2-9.6 1.5-4.8.7-4.8.9-9.6 1.7c-12.7 2.5-25.4 5.1-38 8-25.3 5.6-50.5 11.6-76 16.2-3.2.6-6.4 1.1-9.6 1.7-3.2.5-6.4 1.1-9.6 1.6l-9.6 1.3-4.8.6-4.8.5-9.7 1-9.7.6-4.8.3-4.9.1-9.9.2Z" fill="#287EF8"/><path d="m.3 259.2 9.7-.4 4.8-.2 4.8-.4 9.6-.8 9.6-1.2 4.8-.6 4.8-.7 9.6-1.5 9.5-1.7c3.2-.6 6.4-1.1 9.5-1.8 25.3-5 50.4-11 75.7-16.4 12.6-2.7 25.3-5.1 38.1-7.2l9.6-1.4c1.6-.2 3.2-.5 4.8-.7l4.8-.5c3.2-.3 6.4-.8 9.6-1.1l9.7-.7c25.8-1.6 51.6-1.6 77.4-3.5 12.9-.9 25.7-2.4 38.4-4.5 12.7-2.2 25.3-5 37.8-8.3 12.4-3.4 24.8-7.2 36.8-11.8 12.1-4.6 23.9-9.7 35.7-14.9 11.8-5.3 23.6-10.5 35.6-15.3 6-2.4 12-4.7 18.1-6.8 3.1-1 6.1-2.1 9.2-3.1 3.1-1 6.2-1.9 9.3-2.7 12.5-3.2 25.4-5.2 38.4-4.8 3.3.1 6.5.4 9.7.5l9.7.4c3.2.1 6.5.3 9.7.6l9.6.9c12.9 1.3 25.7 2.7 38.5 3.8 6.4.5 12.9.9 19.3 1.1 6.4.1 12.9 0 19.3-.3 25.8-1.3 51.3-5 76.8-9.3 12.7-2.1 25.4-4.4 38.1-6.7l38.2-6.7c6.4-1.1 12.7-2.2 19.1-3.2 6.4-1 12.8-2.1 19.2-2.8 6.4-.7 12.9-1.2 19.4-1 6.5.2 12.9 1 19.2 2.6 6.3 1.6 12.3 4.1 18.1 7.1 5.8 2.9 11.3 6.3 16.8 9.7 11 6.9 21.5 14.3 32.3 21.3 21.8 13.8 44 27.2 67.8 37.2 3 1.3 6 2.4 9 3.6 3 1.1 6.1 2.1 9.1 3.2s6.2 1.9 9.2 2.9c3.1.9 6.2 1.8 9.3 2.6 12.5 3.3 25.1 5.9 37.9 7.7 25.5 3.5 51.6 4.1 77.1-.1-25.5 4.3-51.6 3.8-77.2.4-12.8-1.7-25.5-4.3-38-7.5-3.1-.9-6.2-1.7-9.3-2.6-3.1-1-6.2-1.8-9.2-2.9-3.1-1-6.1-2-9.2-3.2-3-1.1-6-2.3-9-3.6-23.9-10-46.1-23.4-67.9-37.2-10.9-7-21.4-14.4-32.4-21.3-5.5-3.4-11-6.7-16.8-9.6-5.7-3-11.7-5.5-17.9-7-6.2-1.6-12.7-2.4-19.1-2.6-6.4-.2-12.9.3-19.3 1s-12.8 1.7-19.1 2.8c-6.4 1-12.7 2.1-19.1 3.3l-38.1 6.7c-12.7 2.3-25.4 4.6-38.1 6.7-25.5 4.2-51.1 8-76.9 9.4-6.5.3-12.9.5-19.4.3-6.5-.2-12.9-.5-19.4-1.1-12.9-1-25.7-2.5-38.6-3.7l-9.6-.9c-3.2-.3-6.4-.4-9.6-.6l-9.7-.4c-3.2-.1-6.5-.4-9.7-.5-12.9-.4-25.7 1.6-38.2 4.8-3.1.8-6.2 1.7-9.3 2.6-3.1 1-6.1 2-9.2 3.1-6.1 2.1-12.1 4.4-18.1 6.8-12 4.7-23.8 9.9-35.6 15.1-11.8 5.2-23.7 10.3-35.8 14.9-12.1 4.6-24.4 8.4-36.9 11.8-12.5 3.4-25.1 6.1-37.8 8.3a412.4 412.4 0 0 1-38.5 4.5c-25.8 1.9-51.6 1.9-77.4 3.4l-9.6.7c-3.2.3-6.4.7-9.6 1l-4.8.5c-1.6.2-3.2.5-4.8.7l-9.6 1.4c-12.7 2.1-25.4 4.5-38 7.2-25.3 5.3-50.4 11.2-75.8 16.1-3.2.6-6.3 1.2-9.5 1.8l-9.5 1.7-9.6 1.5-4.8.7-4.8.6-9.6 1.2-9.6.8-4.8.4-4.8.2-9.5.2Z" fill="#287EF8"/><path d="m.3 255.9 9.7-.6 4.8-.3 4.8-.5 9.6-1 9.6-1.4 4.8-.7 4.8-.8 9.5-1.6 9.5-1.8c3.2-.6 6.3-1.2 9.5-1.9 25.3-5.3 50.4-11.4 75.7-16.4 12.7-2.6 25.4-4.6 38.2-6.3 6.4-.7 12.8-1.5 19.3-1.8l4.8-.3 2.4-.2c.8 0 1.6 0 2.4-.1l9.7-.2c25.8.1 51.6 1.6 77.4 1.4 12.9-.1 25.8-.7 38.6-2s25.6-3.3 38.2-5.8c6.3-1.3 12.6-2.7 18.9-4.3 3.1-.8 6.2-1.6 9.4-2.5l9.3-2.7c12.3-3.8 24.5-8.2 36.5-12.7 12.1-4.5 24.1-9.2 36.3-13.6 6.1-2.2 12.2-4.3 18.3-6.4 3.1-1 6.1-2 9.2-2.9 3.1-.9 6.2-1.7 9.4-2.5 12.6-3 25.4-4.7 38.3-6 6.4-.7 12.9-1.1 19.3-1.3l19.4-.7c12.9-.5 25.8-.9 38.7-1.7 6.4-.4 12.9-.8 19.3-1.3 6.4-.6 12.8-1.3 19.2-2.2 12.8-1.7 25.5-3.9 38.2-6.2 12.7-2.3 25.4-4.8 38-7.3 25.3-5 50.7-10 76.2-13.8 6.4-.9 12.8-1.8 19.2-2.6 6.4-.8 12.8-1.5 19.3-2 12.9-.8 26-.5 38.5 3.1 6.3 1.7 12.3 4.3 17.9 7.5 5.7 3.1 11.2 6.5 16.5 10.1 10.8 7.1 21.2 14.8 31.8 22.1 21.3 14.5 43.1 28.5 66.6 39.3 5.9 2.7 11.8 5.2 17.9 7.4 6 2.2 12.2 4.2 18.4 6.1 12.4 3.7 25 6.5 37.7 8.5 12.7 2 25.6 3.1 38.5 3.3 12.9.1 25.8-.8 38.5-3.1-12.7 2.3-25.6 3.3-38.5 3.2-12.9-.1-25.8-1.2-38.6-3.1-12.8-2-25.4-4.7-37.8-8.3-6.2-1.8-12.4-3.8-18.4-6-6.1-2.1-12.1-4.6-17.9-7.3-23.5-10.8-45.3-24.8-66.7-39.3-10.6-7.3-21-15-31.8-22.1-5.4-3.6-10.9-6.9-16.5-10.1-5.6-3.2-11.6-5.7-17.8-7.4-12.4-3.6-25.5-3.9-38.3-3.1-6.4.4-12.8 1.2-19.2 2-6.4.8-12.8 1.6-19.2 2.6-25.5 3.7-50.9 8.8-76.2 13.8-12.7 2.5-25.3 5-38 7.3s-25.4 4.5-38.2 6.3c-6.4.9-12.8 1.6-19.3 2.2-6.4.6-12.9 1-19.3 1.4-12.9.7-25.8 1.2-38.7 1.7-12.9.6-25.8.6-38.6 2-12.8 1.3-25.6 3-38.2 5.9-3.1.7-6.2 1.6-9.3 2.5-3.1.9-6.1 1.9-9.2 2.9-6.1 2-12.2 4.1-18.3 6.3-12.1 4.4-24.2 9-36.3 13.6-12.1 4.5-24.2 8.9-36.6 12.7-3.1 1-6.2 1.8-9.3 2.7-3.1.8-6.2 1.7-9.4 2.5-6.3 1.6-12.6 3-18.9 4.3-12.7 2.5-25.5 4.5-38.3 5.8-12.9 1.3-25.8 1.9-38.7 1.9-25.8.2-51.6-1.4-77.4-1.5l-9.7.1c-.8 0-1.6 0-2.4.1l-2.4.2-4.8.3c-6.4.3-12.8 1.1-19.3 1.8-12.8 1.7-25.5 3.7-38.2 6.3-25.3 4.9-50.4 11-75.7 16.2-3.2.7-6.3 1.3-9.5 1.9l-9.5 1.8-9.5 1.6-4.8.8-4.8.7-9.6 1.3-9.6 1-4.8.5-4.8.3-9.7.4Z" fill="#287EF8"/><path d="m.3 252.7 9.7-.8 4.8-.4 4.8-.6 9.6-1.2 9.6-1.5 4.8-.8 4.8-.9 9.6-1.9c6.3-1.3 12.7-2.5 19-3.9 25.3-5.4 50.5-11.6 76-16.2 6.4-1.2 12.8-2.1 19.2-3.1 1.6-.3 3.2-.5 4.8-.6l4.8-.6c3.2-.4 6.4-.8 9.7-1l9.7-.8c1.6-.2 3.2-.2 4.9-.2l4.9-.2 4.9-.2c1.6-.1 3.2.1 4.9.1l9.7.2c25.9 1.4 51.6 4.7 77.4 6.3 25.8 1.7 51.8.7 77.4-2.8 12.8-1.8 25.6-4.1 38.1-7.2 12.6-3 25-6.7 37.3-10.6 12.3-3.9 24.6-8 36.9-12.1 6.2-2 12.3-4 18.5-6 6.2-2 12.4-3.8 18.7-5.4 12.5-3.3 25.3-5.8 38.2-7.2 6.4-.6 12.8-1.6 19.2-2.7 6.4-1.1 12.8-2.1 19.2-3.1 12.8-2 25.5-4.2 38.3-6.6 12.7-2.4 25.4-4.8 38-7.7 25.2-5.8 50.3-12.3 75.6-18.1 12.6-2.9 25.3-5.7 38-8.1 12.7-2.5 25.5-4.6 38.4-6.3 6.4-.8 12.9-1.5 19.3-2.1 6.5-.6 12.9-1 19.4-1.2 6.5-.2 13 0 19.4.6 6.5.7 12.9 1.9 19.1 3.8 6.2 1.9 12.2 4.5 17.8 7.8 5.6 3.3 11 6.9 16.3 10.6 10.7 7.4 20.9 15.3 31.3 23 20.9 15.2 42.3 30 65.5 41.6 11.5 5.8 23.6 10.6 35.9 14.6 12.3 4 24.9 7.1 37.7 9.4 12.7 2.2 25.7 3.5 38.6 3.7 12.9.2 25.9-.8 38.6-3.2-12.7 2.5-25.7 3.5-38.6 3.4-13-.1-25.9-1.4-38.7-3.6-12.8-2.2-25.4-5.3-37.7-9.2-12.3-4-24.5-8.7-36-14.5-11.6-5.8-22.8-12.4-33.6-19.4-10.9-7.1-21.5-14.5-31.9-22.1-10.4-7.7-20.7-15.6-31.3-23-5.3-3.7-10.7-7.2-16.3-10.5-5.6-3.2-11.5-5.9-17.7-7.7-6.2-1.9-12.5-3.1-19-3.7-6.4-.6-12.9-.8-19.4-.6-6.5.2-12.9.6-19.4 1.2-6.4.6-12.9 1.3-19.3 2.1-12.8 1.7-25.6 3.8-38.3 6.3-12.7 2.5-25.3 5.3-38 8.2-25.2 5.8-50.3 12.3-75.6 18.1-12.6 2.9-25.3 5.4-38.1 7.8-12.7 2.4-25.5 4.6-38.3 6.6-6.4 1-12.8 2-19.2 3.1-6.4 1.1-12.8 2.1-19.3 2.7-12.8 1.4-25.6 3.9-38.1 7.2-6.3 1.6-12.5 3.5-18.6 5.4-6.2 1.9-12.3 3.9-18.5 5.9-12.3 4-24.6 8.1-36.9 12-12.4 3.9-24.8 7.6-37.4 10.6-12.6 3.1-25.4 5.4-38.2 7.1-25.7 3.6-51.7 4.5-77.6 2.8-25.9-1.6-51.6-4.9-77.4-6.4l-9.7-.3c-1.6 0-3.2-.1-4.8-.1l-4.8.1H206c-1.6.1-3.2.1-4.8.2l-9.7.8c-3.2.2-6.4.7-9.6 1l-4.8.6-4.8.6c-6.4 1-12.8 1.9-19.2 3.1-25.5 4.5-50.7 10.6-76 16-6.3 1.4-12.7 2.6-19 3.9l-9.6 1.7-4.8.9-4.8.8-9.6 1.5-9.6 1.2-4.8.6-4.8.4-9.8.8Z" fill="#287EF8"/><path d="M.3 249.4c26-2.3 51.5-7.7 76.9-13.4 25.4-5.7 50.7-11.9 76.5-16.1 25.7-4.2 51.9-6.3 77.9-3.3 25.9 2.9 51.5 7.9 77.3 11.2 12.9 1.6 25.9 2.7 38.9 3 13 .3 26 0 39-1s25.9-2.6 38.7-4.9c12.8-2.3 25.5-5.3 38.1-8.6 12.6-3.3 25.1-6.9 37.6-10.6l18.7-5.6c6.2-1.9 12.5-3.7 18.8-5.4 12.6-3.4 25.3-6.3 38.1-8.7 6.4-1.2 12.7-2.8 19-4.4 6.3-1.7 12.6-3.3 18.9-5 12.6-3.4 25-7.1 37.5-11 12.4-3.8 24.9-7.7 37.3-11.7 24.8-8 49.6-16.1 74.7-22.9 12.6-3.4 25.2-6.6 38-9.2 12.7-2.8 25.6-4.9 38.6-6.4 12.9-1.5 26-2.4 39-2.3 13 .1 26.2 1.6 38.6 5.5 3.1 1 6.2 2.2 9.2 3.5 3 1.3 5.9 2.8 8.7 4.5 5.6 3.4 10.9 7.2 16.2 11 10.5 7.7 20.7 15.9 30.9 23.9 20.6 16 41.5 31.5 64.4 44 11.4 6.3 23.4 11.5 35.6 15.8 12.3 4.3 24.8 7.8 37.6 10.3 12.8 2.5 25.8 4 38.8 4.3 13 .3 26.1-.7 38.8-3.3-12.7 2.7-25.8 3.7-38.8 3.5-13-.2-26-1.7-38.8-4.2-12.8-2.5-25.4-5.9-37.7-10.2-12.3-4.3-24.3-9.5-35.7-15.8-11.5-6.2-22.5-13.3-33.2-20.7-10.7-7.5-21.1-15.3-31.4-23.3-10.3-8-20.4-16.2-30.9-23.9-5.3-3.8-10.6-7.6-16.1-10.9-2.8-1.6-5.7-3.1-8.6-4.5-3-1.3-6-2.4-9.1-3.5-12.4-3.9-25.4-5.4-38.4-5.5-13-.1-26 .8-38.9 2.3-12.9 1.5-25.8 3.6-38.5 6.4-12.7 2.6-25.4 5.8-37.9 9.2-25.1 6.8-49.9 15-74.7 23-12.4 4-24.8 7.9-37.3 11.7-12.4 3.8-24.9 7.6-37.5 11-6.3 1.7-12.6 3.3-18.9 5-6.3 1.6-12.6 3.2-19.1 4.4-12.8 2.4-25.5 5.3-38.1 8.6-6.3 1.7-12.5 3.5-18.8 5.3l-18.7 5.6c-12.5 3.7-25 7.3-37.6 10.6-12.6 3.3-25.3 6.2-38.1 8.5s-25.8 3.9-38.8 4.9c-13 1-26 1.3-39.1 1-13-.3-26-1.4-39-3.1-25.9-3.3-51.4-8.3-77.3-11.2-25.9-3.1-52.1-1-77.7 3.2-25.7 4.1-51.1 10.3-76.5 15.9-25.5 6-51.1 11.2-77.1 13.5Z" fill="#287EF8"/><path d="M.4 246.1c52.3-6 102.4-23.3 154.4-30.8 13-1.9 26.1-3 39.3-3.2 6.6 0 13.1.2 19.7.7 6.5.6 13.1 1.4 19.5 2.6 25.9 4.5 51.3 11.2 77.1 16 51.6 10 105.1 8.6 156.3-2.6 12.8-2.7 25.6-5.8 38.3-9.2 6.3-1.7 12.7-3.5 19-5.3l19-5.3 38-10.5c6.3-1.8 12.5-3.8 18.7-6 6.2-2.2 12.4-4.4 18.5-6.7 24.5-9.3 48.6-19.9 72.8-30.1 12.1-5.1 24.2-10.1 36.5-14.9 12.2-4.7 24.6-9.2 37.1-13.2s25.2-7.6 38-10.5c6.4-1.4 12.8-2.9 19.3-4s13-2.1 19.5-2.8c13.1-1.4 26.2-2 39.4-1.5 13.1.5 26.3 2.4 38.8 6.6 1.5.6 3.1 1.1 4.6 1.7l2.3.9c.8.3 1.5.7 2.3 1 3 1.3 5.9 2.9 8.8 4.5 2.8 1.7 5.6 3.5 8.2 5.5 2.7 1.9 5.3 3.9 7.9 5.9 10.4 8 20.5 16.5 30.6 24.9 20.2 16.7 40.8 33.2 63.4 46.6 5.6 3.3 11.4 6.5 17.3 9.4 5.9 2.8 11.9 5.5 18 7.8 12.2 4.7 24.8 8.6 37.6 11.4 12.8 2.8 25.9 4.5 39 4.9 13.1.4 26.3-.6 39.1-3.5-12.8 2.9-26 3.9-39.1 3.6-13.1-.4-26.2-2-39.1-4.8-12.8-2.8-25.5-6.6-37.7-11.3-6.1-2.3-12.2-5-18.1-7.8-5.9-2.9-11.7-6-17.4-9.3-11.3-6.7-22.1-14.2-32.7-22-10.5-7.9-20.7-16.1-30.9-24.5-10.1-8.4-20.2-16.9-30.6-24.8-2.6-2-5.2-4-7.9-5.9-2.6-1.9-5.3-3.8-8.2-5.4a71.6 71.6 0 0 0-8.7-4.5c-.7-.3-1.5-.7-2.2-1l-2.3-.9c-1.5-.6-3.1-1.1-4.6-1.7-12.4-4.2-25.5-6-38.6-6.5-13.1-.5-26.2.1-39.3 1.6-6.5.7-13 1.7-19.5 2.8-6.5 1.1-12.9 2.6-19.3 4-12.8 2.9-25.4 6.5-37.9 10.6-12.5 4-24.8 8.5-37.1 13.3-12.2 4.8-24.3 9.8-36.4 14.9-24.2 10.2-48.2 20.8-72.8 30.2-6.1 2.3-12.3 4.6-18.5 6.7-6.2 2.2-12.5 4.2-18.8 6l-38 10.5-19 5.2c-6.3 1.8-12.6 3.6-19 5.2-12.7 3.4-25.5 6.5-38.3 9.2-51.3 11.1-105 12.4-156.6 2.4-25.8-4.9-51.2-11.6-77.1-16.1-6.5-1.2-13-2-19.5-2.6-6.5-.5-13.1-.7-19.6-.7-13.1.1-26.2 1.3-39.2 3.1-51.8 7.2-102 24.4-154.3 30.2Z" fill="#287EF8"/><path d="M.4 242.8c52.6-7.2 103-25.6 155.8-32.1 6.6-.8 13.2-1.4 19.8-1.7l2.5-.1 2.5-.1 5-.1c3.3 0 6.6 0 10 .2 13.3.4 26.5 2.5 39.4 5.7 25.8 6.2 51.1 14.4 76.8 20.8 25.7 6.5 52.1 10.2 78.6 11.2 26.5 1 53.1-.8 79.2-5 13.1-2.1 26.1-4.7 39-7.9 12.9-3.1 25.7-6.7 38.4-10.5s25.3-7.9 37.8-12.4c12.4-4.6 24.5-10 36.5-15.7 23.9-11.4 47.1-24.3 70.7-36.6 23.5-12.3 47.4-24.1 72.2-33.6 12.4-4.7 25-8.9 37.9-12.3l2.4-.6 2.4-.6 4.9-1.1c3.2-.7 6.5-1.5 9.7-2.1 6.5-1.3 13.1-2.3 19.7-3 13.2-1.5 26.5-1.9 39.8-1.1 13.2.9 26.5 3.1 39 7.6 6.3 2.2 12.3 5 18.1 8.4 2.9 1.7 5.6 3.5 8.3 5.5 2.7 2 5.2 4.1 7.8 6.2 10.3 8.4 20.3 17.1 30.2 25.9 19.9 17.5 40.1 34.9 62.4 49.3 22.2 14.6 47 25 72.7 31.2l2.4.6 2.4.5 4.9 1c3.3.6 6.5 1.1 9.8 1.7 3.3.4 6.6.9 9.9 1.2l5 .4 2.5.2 2.5.1c13.2.5 26.6-.5 39.5-3.6-12.9 3.1-26.3 4.1-39.5 3.7l-2.5-.1-2.5-.2-5-.4c-3.3-.3-6.6-.8-9.9-1.1-3.3-.6-6.6-1-9.8-1.6l-4.9-1-2.4-.5-2.4-.6c-25.8-6.2-50.7-16.5-72.9-31-22.4-14.4-42.6-31.8-62.5-49.2-10-8.8-19.9-17.5-30.2-25.9-2.6-2.1-5.2-4.1-7.8-6.1-2.6-2-5.4-3.8-8.3-5.5-5.7-3.3-11.7-6.1-18-8.3-12.5-4.4-25.7-6.7-38.9-7.5-13.2-.8-26.5-.4-39.7 1.1-6.6.7-13.1 1.8-19.6 3-3.3.6-6.5 1.4-9.7 2.1l-4.8 1.1-2.4.6-2.4.6c-12.8 3.4-25.4 7.5-37.8 12.3-24.8 9.5-48.6 21.3-72 33.6-23.7 12.2-46.9 25.2-70.9 36.6-12 5.7-24.1 11.1-36.6 15.7-12.5 4.5-25.1 8.5-37.9 12.4-12.7 3.8-25.5 7.4-38.4 10.5-12.9 3.1-25.9 5.7-39 7.8-26.2 4.2-52.8 6-79.4 5-26.5-1-53-4.8-78.7-11.3-25.8-6.4-51-14.7-76.8-20.9-12.9-3.2-26-5.3-39.2-5.7-3.3-.2-6.6-.2-9.9-.2l-5 .1-2.5.1-2.5.1c-6.6.3-13.2.9-19.8 1.7-52.8 6.2-103.2 24.4-155.9 31.5Z" fill="#287EF8"/><path d="M.4 239.5c26.5-4.3 52.5-11.3 78.5-17.9 26-6.6 52.2-12.9 79-15.4 6.7-.7 13.4-1 20.1-1.1 6.7 0 13.4.2 20.1.8 6.7.7 13.4 1.6 19.9 3.1 6.6 1.5 13 3.3 19.5 5.2 25.7 7.8 50.7 17.7 76.4 25.6 3.2 1 6.4 1.9 9.7 2.8 3.2.9 6.5 1.7 9.7 2.5l9.8 2.4 9.9 2 4.9 1c1.6.3 3.3.7 4.9.9l10 1.5 5 .7c.8.1 1.7.3 2.5.4l2.5.3 10 1c26.7 2.4 53.7 2.2 80.3-.9 26.6-3.1 53-8.9 78.5-17.2l9.5-3.2c1.6-.5 3.1-1.2 4.7-1.8l4.7-1.8 9.4-3.7 9.2-4.1 4.6-2.1c1.5-.7 3.1-1.3 4.6-2.1l9-4.5c6-2.9 11.8-6.3 17.7-9.6 23.3-13.3 45.8-28 68.6-42.2 11.4-7.2 22.9-14.1 34.6-20.7 5.9-3.2 11.7-6.6 17.8-9.6l4.5-2.3c1.5-.8 3-1.5 4.5-2.2l9.1-4.3c12.3-5.4 24.8-10.5 37.7-14.3 6.4-2.1 13-3.6 19.5-5.2s13.2-2.6 19.9-3.5c13.3-1.7 26.9-2 40.3-.9 6.7.5 13.4 1.5 20 2.9s13.1 3.2 19.4 5.6c6.3 2.4 12.4 5.2 18.2 8.6 5.8 3.4 11.2 7.5 16.2 12 10.2 8.7 20.1 17.9 29.9 27 19.7 18.3 39.4 36.6 61.4 52 1.4 1 2.7 1.9 4.1 2.8l4.2 2.8c2.8 1.8 5.7 3.5 8.5 5.3 1.4.9 2.9 1.7 4.4 2.5 1.5.8 2.9 1.7 4.4 2.4l4.5 2.3 2.2 1.1 2.3 1.1c12.2 5.7 24.8 10.3 37.8 13.8 13 3.5 26.3 5.7 39.7 6.3 13.4.6 26.9-.3 40-3.7-13 3.4-26.6 4.4-40 3.8-13.4-.6-26.8-2.8-39.7-6.2-13-3.4-25.7-8-37.9-13.7l-2.3-1-2.3-1.1-4.5-2.3c-1.5-.7-2.9-1.6-4.4-2.4-1.5-.8-2.9-1.6-4.4-2.5-2.9-1.8-5.8-3.5-8.6-5.3l-4.2-2.8c-1.4-.9-2.8-1.9-4.2-2.8-22.1-15.4-41.8-33.7-61.5-52-9.9-9.1-19.7-18.2-29.9-26.9-5-4.4-10.4-8.5-16.2-11.9-5.8-3.4-11.9-6.2-18.1-8.6-6.3-2.3-12.7-4.1-19.3-5.5-6.6-1.4-13.2-2.3-19.9-2.9-13.4-1.1-26.8-.7-40.1 1-6.6.8-13.3 1.9-19.8 3.5s-13.1 3.1-19.4 5.2c-12.9 3.8-25.3 8.8-37.6 14.3l-9.1 4.3c-1.5.7-3 1.5-4.5 2.2l-4.5 2.3c-6 3-11.8 6.3-17.7 9.6-11.6 6.7-23.2 13.6-34.5 20.8-22.8 14.2-45.2 29-68.6 42.3-5.9 3.2-11.7 6.6-17.8 9.6l-9 4.6c-1.5.8-3 1.4-4.6 2.1l-4.6 2.1-9.2 4.1-9.4 3.7-4.7 1.8c-1.6.6-3.1 1.3-4.7 1.8l-9.6 3.2c-25.5 8.4-51.9 14.1-78.6 17.2-26.7 3-53.7 3.3-80.5.8l-10-1-2.5-.3c-.8-.1-1.7-.2-2.5-.4l-5-.7-10-1.5c-1.7-.2-3.3-.6-5-.9l-4.9-1-9.9-2-9.8-2.5c-3.3-.8-6.5-1.6-9.8-2.5-3.2-.9-6.5-1.9-9.7-2.9-25.7-7.9-50.7-17.8-76.4-25.6-6.4-2-12.9-3.8-19.4-5.2-6.5-1.5-13.2-2.4-19.9-3.1-6.7-.6-13.4-.9-20.1-.8-6.7.1-13.4.4-20.1 1-26.7 2.5-53 8.7-79 15.2C53 228.4 27 235.4.4 239.5Z" fill="#287EF8"/></svg>